<?xml version="1.0" encoding="UTF-8"?>
<!DOCTYPE svg PUBLIC "-//W3C//DTD SVG 1.1//EN" "http://www.w3.org/Graphics/SVG/1.1/DTD/svg11.dtd">
<svg version="1.2" width="110mm" height="110mm" viewBox="0 0 11000 11000" preserveAspectRatio="xMidYMid" fill-rule="evenodd" stroke-width="28.222" stroke-linejoin="round" xmlns="http://www.w3.org/2000/svg" xmlns:ooo="http://xml.openoffice.org/svg/export" xmlns:xlink="http://www.w3.org/1999/xlink" xmlns:presentation="http://sun.com/xmlns/staroffice/presentation" xmlns:smil="http://www.w3.org/2001/SMIL20/" xmlns:anim="urn:oasis:names:tc:opendocument:xmlns:animation:1.0" xml:space="preserve">
 <defs class="ClipPathGroup">
  <clipPath id="presentation_clip_path" clipPathUnits="userSpaceOnUse">
   <rect x="0" y="0" width="11000" height="11000"/>
  </clipPath>
  <clipPath id="presentation_clip_path_shrink" clipPathUnits="userSpaceOnUse">
   <rect x="11" y="11" width="10978" height="10978"/>
  </clipPath>
 </defs>
 <defs class="TextShapeIndex">
  <g ooo:slide="id1" ooo:id-list="id3 id4 id5 id6 id7 id8 id9 id10 id11 id12 id13 id14 id15 id16 id17 id18 id19 id20 id21 id22 id23"/>
 </defs>
 <defs class="EmbeddedBulletChars">
  <g id="bullet-char-template-57356" transform="scale(0.00048828125,-0.00048828125)">
   <path d="M 580,1141 L 1163,571 580,0 -4,571 580,1141 Z"/>
  </g>
  <g id="bullet-char-template-57354" transform="scale(0.00048828125,-0.00048828125)">
   <path d="M 8,1128 L 1137,1128 1137,0 8,0 8,1128 Z"/>
  </g>
  <g id="bullet-char-template-10146" transform="scale(0.00048828125,-0.00048828125)">
   <path d="M 174,0 L 602,739 174,1481 1456,739 174,0 Z M 1358,739 L 309,1346 659,739 1358,739 Z"/>
  </g>
  <g id="bullet-char-template-10132" transform="scale(0.00048828125,-0.00048828125)">
   <path d="M 2015,739 L 1276,0 717,0 1260,543 174,543 174,936 1260,936 717,1481 1274,1481 2015,739 Z"/>
  </g>
  <g id="bullet-char-template-10007" transform="scale(0.00048828125,-0.00048828125)">
   <path d="M 0,-2 C -7,14 -16,27 -25,37 L 356,567 C 262,823 215,952 215,954 215,979 228,992 255,992 264,992 276,990 289,987 310,991 331,999 354,1012 L 381,999 492,748 772,1049 836,1024 860,1049 C 881,1039 901,1025 922,1006 886,937 835,863 770,784 769,783 710,716 594,584 L 774,223 C 774,196 753,168 711,139 L 727,119 C 717,90 699,76 672,76 641,76 570,178 457,381 L 164,-76 C 142,-110 111,-127 72,-127 30,-127 9,-110 8,-76 1,-67 -2,-52 -2,-32 -2,-23 -1,-13 0,-2 Z"/>
  </g>
  <g id="bullet-char-template-10004" transform="scale(0.00048828125,-0.00048828125)">
   <path d="M 285,-33 C 182,-33 111,30 74,156 52,228 41,333 41,471 41,549 55,616 82,672 116,743 169,778 240,778 293,778 328,747 346,684 L 369,508 C 377,444 397,411 428,410 L 1163,1116 C 1174,1127 1196,1133 1229,1133 1271,1133 1292,1118 1292,1087 L 1292,965 C 1292,929 1282,901 1262,881 L 442,47 C 390,-6 338,-33 285,-33 Z"/>
  </g>
  <g id="bullet-char-template-9679" transform="scale(0.00048828125,-0.00048828125)">
   <path d="M 813,0 C 632,0 489,54 383,161 276,268 223,411 223,592 223,773 276,916 383,1023 489,1130 632,1184 813,1184 992,1184 1136,1130 1245,1023 1353,916 1407,772 1407,592 1407,412 1353,268 1245,161 1136,54 992,0 813,0 Z"/>
  </g>
  <g id="bullet-char-template-8226" transform="scale(0.00048828125,-0.00048828125)">
   <path d="M 346,457 C 273,457 209,483 155,535 101,586 74,649 74,723 74,796 101,859 155,911 209,963 273,989 346,989 419,989 480,963 531,910 582,859 608,796 608,723 608,648 583,586 532,535 482,483 420,457 346,457 Z"/>
  </g>
  <g id="bullet-char-template-8211" transform="scale(0.00048828125,-0.00048828125)">
   <path d="M -4,459 L 1135,459 1135,606 -4,606 -4,459 Z"/>
  </g>
  <g id="bullet-char-template-61548" transform="scale(0.00048828125,-0.00048828125)">
   <path d="M 173,740 C 173,903 231,1043 346,1159 462,1274 601,1332 765,1332 928,1332 1067,1274 1183,1159 1299,1043 1357,903 1357,740 1357,577 1299,437 1183,322 1067,206 928,148 765,148 601,148 462,206 346,322 231,437 173,577 173,740 Z"/>
  </g>
 </defs>
 <defs class="TextEmbeddedBitmaps"/>
 <g>
  <g id="id2" class="Master_Slide">
   <g id="bg-id2" class="Background"/>
   <g id="bo-id2" class="BackgroundObjects"/>
  </g>
 </g>
 <g class="SlideGroup">
  <g>
   <g id="container-id1">
    <g id="id1" class="Slide" clip-path="url(#presentation_clip_path)">
     <g class="Page">
      <g class="com.sun.star.drawing.LineShape">
       <g id="id3">
        <rect class="BoundingBox" stroke="none" fill="none" x="1789" y="6001" width="423" height="3642"/>
        <path fill="none" stroke="rgb(0,0,255)" stroke-width="81" stroke-linejoin="round" d="M 2000,9601 L 2000,6604"/>
        <path fill="rgb(0,0,255)" stroke="none" d="M 2000,6001 L 1790,6633 2211,6633 2000,6001 Z"/>
       </g>
      </g>
      <g class="com.sun.star.drawing.LineShape">
       <g id="id4">
        <rect class="BoundingBox" stroke="none" fill="none" x="1959" y="9391" width="3642" height="423"/>
        <path fill="none" stroke="rgb(255,0,0)" stroke-width="81" stroke-linejoin="round" d="M 2000,9602 L 4997,9602"/>
        <path fill="rgb(255,0,0)" stroke="none" d="M 5600,9602 L 4969,9392 4969,9813 5600,9602 Z"/>
       </g>
      </g>
      <g class="com.sun.star.drawing.RectangleShape">
       <g id="id5">
        <rect class="BoundingBox" stroke="none" fill="none" x="4445" y="3517" width="2283" height="3512"/>
        <path fill="none" stroke="rgb(255,255,255)" stroke-width="53" stroke-linejoin="round" d="M 5851,5414 L 5001,7001 4472,6718 6172,3544 6700,3828 5851,5414 Z"/>
       </g>
      </g>
      <g class="com.sun.star.drawing.RectangleShape">
       <g id="id6">
        <rect class="BoundingBox" stroke="none" fill="none" x="1873" y="6674" width="3091" height="2956"/>
        <path fill="none" stroke="rgb(255,255,255)" stroke-width="53" stroke-linejoin="round" d="M 3623,8370 L 2310,9602 1900,9164 4526,6701 4936,7139 3623,8370 Z"/>
       </g>
      </g>
      <g class="com.sun.star.drawing.EllipseShape">
       <g id="id7">
        <rect class="BoundingBox" stroke="none" fill="none" x="1673" y="8974" width="855" height="855"/>
        <path fill="rgb(25,25,25)" stroke="none" d="M 2100,9801 C 2026,9801 1964,9784 1900,9747 1836,9711 1790,9665 1754,9601 1717,9537 1700,9475 1700,9401 1700,9327 1717,9265 1754,9201 1790,9137 1836,9091 1900,9055 1964,9018 2026,9001 2100,9001 2174,9001 2236,9018 2300,9055 2364,9091 2410,9137 2446,9201 2483,9265 2500,9327 2500,9401 2500,9475 2483,9537 2446,9601 2410,9665 2364,9711 2300,9747 2236,9784 2174,9801 2100,9801 L 2100,9801 Z"/>
        <path fill="none" stroke="rgb(255,255,255)" stroke-width="53" stroke-linejoin="round" d="M 2100,9801 C 2026,9801 1964,9784 1900,9747 1836,9711 1790,9665 1754,9601 1717,9537 1700,9475 1700,9401 1700,9327 1717,9265 1754,9201 1790,9137 1836,9091 1900,9055 1964,9018 2026,9001 2100,9001 2174,9001 2236,9018 2300,9055 2364,9091 2410,9137 2446,9201 2483,9265 2500,9327 2500,9401 2500,9475 2483,9537 2446,9601 2410,9665 2364,9711 2300,9747 2236,9784 2174,9801 2100,9801 L 2100,9801 Z"/>
       </g>
      </g>
      <g class="com.sun.star.drawing.EllipseShape">
       <g id="id8">
        <rect class="BoundingBox" stroke="none" fill="none" x="4373" y="6374" width="855" height="855"/>
        <path fill="rgb(25,25,25)" stroke="none" d="M 4800,7201 C 4726,7201 4664,7184 4600,7147 4536,7111 4490,7065 4454,7001 4417,6937 4400,6875 4400,6801 4400,6727 4417,6665 4454,6601 4490,6537 4536,6491 4600,6455 4664,6418 4726,6401 4800,6401 4874,6401 4936,6418 5000,6455 5064,6491 5110,6537 5146,6601 5183,6665 5200,6727 5200,6801 5200,6875 5183,6937 5146,7001 5110,7065 5064,7111 5000,7147 4936,7184 4874,7201 4800,7201 L 4800,7201 Z"/>
        <path fill="none" stroke="rgb(255,255,255)" stroke-width="53" stroke-linejoin="round" d="M 4800,7201 C 4726,7201 4664,7184 4600,7147 4536,7111 4490,7065 4454,7001 4417,6937 4400,6875 4400,6801 4400,6727 4417,6665 4454,6601 4490,6537 4536,6491 4600,6455 4664,6418 4726,6401 4800,6401 4874,6401 4936,6418 5000,6455 5064,6491 5110,6537 5146,6601 5183,6665 5200,6727 5200,6801 5200,6875 5183,6937 5146,7001 5110,7065 5064,7111 5000,7147 4936,7184 4874,7201 4800,7201 Z"/>
       </g>
      </g>
      <g class="com.sun.star.drawing.LineShape">
       <g id="id9">
        <rect class="BoundingBox" stroke="none" fill="none" x="6559" y="900" width="1242" height="2542"/>
        <path fill="none" stroke="rgb(255,166,166)" stroke-width="81" stroke-linejoin="round" d="M 6600,3400 L 7539,1444"/>
        <path fill="rgb(255,166,166)" stroke="none" d="M 7800,900 L 7337,1378 7717,1560 7800,900 Z"/>
       </g>
      </g>
      <g class="com.sun.star.drawing.OpenBezierShape">
       <g id="id10">
        <rect class="BoundingBox" stroke="none" fill="none" x="3559" y="8360" width="705" height="1284"/>
        <path fill="none" stroke="rgb(255,122,255)" stroke-width="81" stroke-linejoin="round" d="M 3600,8401 C 4400,8801 4200,9602 4200,9602"/>
       </g>
      </g>
      <g class="com.sun.star.drawing.LineShape">
       <g id="id11">
        <rect class="BoundingBox" stroke="none" fill="none" x="2073" y="1774" width="8055" height="7655"/>
        <path fill="none" stroke="rgb(255,122,255)" stroke-width="53" stroke-linejoin="round" d="M 2100,9401 L 2137,9366"/>
        <path fill="none" stroke="rgb(255,122,255)" stroke-width="53" stroke-linejoin="round" d="M 2174,9331 L 2211,9296"/>
        <path fill="none" stroke="rgb(255,122,255)" stroke-width="53" stroke-linejoin="round" d="M 2248,9260 L 2285,9225"/>
        <path fill="none" stroke="rgb(255,122,255)" stroke-width="53" stroke-linejoin="round" d="M 2322,9190 L 2359,9155"/>
        <path fill="none" stroke="rgb(255,122,255)" stroke-width="53" stroke-linejoin="round" d="M 2396,9120 L 2433,9085"/>
        <path fill="none" stroke="rgb(255,122,255)" stroke-width="53" stroke-linejoin="round" d="M 2470,9050 L 2507,9015"/>
        <path fill="none" stroke="rgb(255,122,255)" stroke-width="53" stroke-linejoin="round" d="M 2544,8979 L 2581,8944"/>
        <path fill="none" stroke="rgb(255,122,255)" stroke-width="53" stroke-linejoin="round" d="M 2618,8909 L 2655,8874"/>
        <path fill="none" stroke="rgb(255,122,255)" stroke-width="53" stroke-linejoin="round" d="M 2692,8839 L 2729,8804"/>
        <path fill="none" stroke="rgb(255,122,255)" stroke-width="53" stroke-linejoin="round" d="M 2766,8769 L 2803,8734"/>
        <path fill="none" stroke="rgb(255,122,255)" stroke-width="53" stroke-linejoin="round" d="M 2839,8698 L 2876,8663"/>
        <path fill="none" stroke="rgb(255,122,255)" stroke-width="53" stroke-linejoin="round" d="M 2913,8628 L 2950,8593"/>
        <path fill="none" stroke="rgb(255,122,255)" stroke-width="53" stroke-linejoin="round" d="M 2987,8558 L 3024,8523"/>
        <path fill="none" stroke="rgb(255,122,255)" stroke-width="53" stroke-linejoin="round" d="M 3061,8488 L 3098,8453"/>
        <path fill="none" stroke="rgb(255,122,255)" stroke-width="53" stroke-linejoin="round" d="M 3135,8417 L 3172,8382"/>
        <path fill="none" stroke="rgb(255,122,255)" stroke-width="53" stroke-linejoin="round" d="M 3209,8347 L 3246,8312"/>
        <path fill="none" stroke="rgb(255,122,255)" stroke-width="53" stroke-linejoin="round" d="M 3283,8277 L 3320,8242"/>
        <path fill="none" stroke="rgb(255,122,255)" stroke-width="53" stroke-linejoin="round" d="M 3357,8207 L 3394,8172"/>
        <path fill="none" stroke="rgb(255,122,255)" stroke-width="53" stroke-linejoin="round" d="M 3431,8136 L 3468,8101"/>
        <path fill="none" stroke="rgb(255,122,255)" stroke-width="53" stroke-linejoin="round" d="M 3505,8066 L 3542,8031"/>
        <path fill="none" stroke="rgb(255,122,255)" stroke-width="53" stroke-linejoin="round" d="M 3579,7996 L 3616,7961"/>
        <path fill="none" stroke="rgb(255,122,255)" stroke-width="53" stroke-linejoin="round" d="M 3653,7926 L 3690,7891"/>
        <path fill="none" stroke="rgb(255,122,255)" stroke-width="53" stroke-linejoin="round" d="M 3727,7855 L 3764,7820"/>
        <path fill="none" stroke="rgb(255,122,255)" stroke-width="53" stroke-linejoin="round" d="M 3801,7785 L 3838,7750"/>
        <path fill="none" stroke="rgb(255,122,255)" stroke-width="53" stroke-linejoin="round" d="M 3875,7715 L 3912,7680"/>
        <path fill="none" stroke="rgb(255,122,255)" stroke-width="53" stroke-linejoin="round" d="M 3949,7645 L 3986,7610"/>
        <path fill="none" stroke="rgb(255,122,255)" stroke-width="53" stroke-linejoin="round" d="M 4023,7574 L 4060,7539"/>
        <path fill="none" stroke="rgb(255,122,255)" stroke-width="53" stroke-linejoin="round" d="M 4097,7504 L 4134,7469"/>
        <path fill="none" stroke="rgb(255,122,255)" stroke-width="53" stroke-linejoin="round" d="M 4171,7434 L 4208,7399"/>
        <path fill="none" stroke="rgb(255,122,255)" stroke-width="53" stroke-linejoin="round" d="M 4245,7364 L 4282,7329"/>
        <path fill="none" stroke="rgb(255,122,255)" stroke-width="53" stroke-linejoin="round" d="M 4318,7293 L 4355,7258"/>
        <path fill="none" stroke="rgb(255,122,255)" stroke-width="53" stroke-linejoin="round" d="M 4392,7223 L 4429,7188"/>
        <path fill="none" stroke="rgb(255,122,255)" stroke-width="53" stroke-linejoin="round" d="M 4466,7153 L 4503,7118"/>
        <path fill="none" stroke="rgb(255,122,255)" stroke-width="53" stroke-linejoin="round" d="M 4540,7083 L 4577,7048"/>
        <path fill="none" stroke="rgb(255,122,255)" stroke-width="53" stroke-linejoin="round" d="M 4614,7012 L 4651,6977"/>
        <path fill="none" stroke="rgb(255,122,255)" stroke-width="53" stroke-linejoin="round" d="M 4688,6942 L 4725,6907"/>
        <path fill="none" stroke="rgb(255,122,255)" stroke-width="53" stroke-linejoin="round" d="M 4762,6872 L 4799,6837"/>
        <path fill="none" stroke="rgb(255,122,255)" stroke-width="53" stroke-linejoin="round" d="M 4836,6802 L 4873,6767"/>
        <path fill="none" stroke="rgb(255,122,255)" stroke-width="53" stroke-linejoin="round" d="M 4910,6731 L 4947,6696"/>
        <path fill="none" stroke="rgb(255,122,255)" stroke-width="53" stroke-linejoin="round" d="M 4984,6661 L 5021,6626"/>
        <path fill="none" stroke="rgb(255,122,255)" stroke-width="53" stroke-linejoin="round" d="M 5058,6591 L 5095,6556"/>
        <path fill="none" stroke="rgb(255,122,255)" stroke-width="53" stroke-linejoin="round" d="M 5132,6521 L 5169,6486"/>
        <path fill="none" stroke="rgb(255,122,255)" stroke-width="53" stroke-linejoin="round" d="M 5206,6450 L 5243,6415"/>
        <path fill="none" stroke="rgb(255,122,255)" stroke-width="53" stroke-linejoin="round" d="M 5280,6380 L 5317,6345"/>
        <path fill="none" stroke="rgb(255,122,255)" stroke-width="53" stroke-linejoin="round" d="M 5354,6310 L 5391,6275"/>
        <path fill="none" stroke="rgb(255,122,255)" stroke-width="53" stroke-linejoin="round" d="M 5428,6240 L 5465,6205"/>
        <path fill="none" stroke="rgb(255,122,255)" stroke-width="53" stroke-linejoin="round" d="M 5502,6169 L 5539,6134"/>
        <path fill="none" stroke="rgb(255,122,255)" stroke-width="53" stroke-linejoin="round" d="M 5576,6099 L 5613,6064"/>
        <path fill="none" stroke="rgb(255,122,255)" stroke-width="53" stroke-linejoin="round" d="M 5650,6029 L 5687,5994"/>
        <path fill="none" stroke="rgb(255,122,255)" stroke-width="53" stroke-linejoin="round" d="M 5724,5959 L 5761,5924"/>
        <path fill="none" stroke="rgb(255,122,255)" stroke-width="53" stroke-linejoin="round" d="M 5797,5888 L 5834,5853"/>
        <path fill="none" stroke="rgb(255,122,255)" stroke-width="53" stroke-linejoin="round" d="M 5871,5818 L 5908,5783"/>
        <path fill="none" stroke="rgb(255,122,255)" stroke-width="53" stroke-linejoin="round" d="M 5945,5748 L 5982,5713"/>
        <path fill="none" stroke="rgb(255,122,255)" stroke-width="53" stroke-linejoin="round" d="M 6019,5678 L 6056,5642"/>
        <path fill="none" stroke="rgb(255,122,255)" stroke-width="53" stroke-linejoin="round" d="M 6093,5607 L 6130,5572"/>
        <path fill="none" stroke="rgb(255,122,255)" stroke-width="53" stroke-linejoin="round" d="M 6167,5537 L 6204,5502"/>
        <path fill="none" stroke="rgb(255,122,255)" stroke-width="53" stroke-linejoin="round" d="M 6241,5467 L 6278,5432"/>
        <path fill="none" stroke="rgb(255,122,255)" stroke-width="53" stroke-linejoin="round" d="M 6315,5397 L 6352,5361"/>
        <path fill="none" stroke="rgb(255,122,255)" stroke-width="53" stroke-linejoin="round" d="M 6389,5326 L 6426,5291"/>
        <path fill="none" stroke="rgb(255,122,255)" stroke-width="53" stroke-linejoin="round" d="M 6463,5256 L 6500,5221"/>
        <path fill="none" stroke="rgb(255,122,255)" stroke-width="53" stroke-linejoin="round" d="M 6537,5186 L 6574,5151"/>
        <path fill="none" stroke="rgb(255,122,255)" stroke-width="53" stroke-linejoin="round" d="M 6611,5116 L 6648,5080"/>
        <path fill="none" stroke="rgb(255,122,255)" stroke-width="53" stroke-linejoin="round" d="M 6685,5045 L 6722,5010"/>
        <path fill="none" stroke="rgb(255,122,255)" stroke-width="53" stroke-linejoin="round" d="M 6759,4975 L 6796,4940"/>
        <path fill="none" stroke="rgb(255,122,255)" stroke-width="53" stroke-linejoin="round" d="M 6833,4905 L 6870,4870"/>
        <path fill="none" stroke="rgb(255,122,255)" stroke-width="53" stroke-linejoin="round" d="M 6907,4835 L 6944,4799"/>
        <path fill="none" stroke="rgb(255,122,255)" stroke-width="53" stroke-linejoin="round" d="M 6981,4764 L 7018,4729"/>
        <path fill="none" stroke="rgb(255,122,255)" stroke-width="53" stroke-linejoin="round" d="M 7055,4694 L 7092,4659"/>
        <path fill="none" stroke="rgb(255,122,255)" stroke-width="53" stroke-linejoin="round" d="M 7129,4624 L 7166,4589"/>
        <path fill="none" stroke="rgb(255,122,255)" stroke-width="53" stroke-linejoin="round" d="M 7203,4554 L 7240,4518"/>
        <path fill="none" stroke="rgb(255,122,255)" stroke-width="53" stroke-linejoin="round" d="M 7276,4483 L 7313,4448"/>
        <path fill="none" stroke="rgb(255,122,255)" stroke-width="53" stroke-linejoin="round" d="M 7350,4413 L 7387,4378"/>
        <path fill="none" stroke="rgb(255,122,255)" stroke-width="53" stroke-linejoin="round" d="M 7424,4343 L 7461,4308"/>
        <path fill="none" stroke="rgb(255,122,255)" stroke-width="53" stroke-linejoin="round" d="M 7498,4273 L 7535,4237"/>
        <path fill="none" stroke="rgb(255,122,255)" stroke-width="53" stroke-linejoin="round" d="M 7572,4202 L 7609,4167"/>
        <path fill="none" stroke="rgb(255,122,255)" stroke-width="53" stroke-linejoin="round" d="M 7646,4132 L 7683,4097"/>
        <path fill="none" stroke="rgb(255,122,255)" stroke-width="53" stroke-linejoin="round" d="M 7720,4062 L 7757,4027"/>
        <path fill="none" stroke="rgb(255,122,255)" stroke-width="53" stroke-linejoin="round" d="M 7794,3992 L 7831,3956"/>
        <path fill="none" stroke="rgb(255,122,255)" stroke-width="53" stroke-linejoin="round" d="M 7868,3921 L 7905,3886"/>
        <path fill="none" stroke="rgb(255,122,255)" stroke-width="53" stroke-linejoin="round" d="M 7942,3851 L 7979,3816"/>
        <path fill="none" stroke="rgb(255,122,255)" stroke-width="53" stroke-linejoin="round" d="M 8016,3781 L 8053,3746"/>
        <path fill="none" stroke="rgb(255,122,255)" stroke-width="53" stroke-linejoin="round" d="M 8090,3711 L 8127,3675"/>
        <path fill="none" stroke="rgb(255,122,255)" stroke-width="53" stroke-linejoin="round" d="M 8164,3640 L 8201,3605"/>
        <path fill="none" stroke="rgb(255,122,255)" stroke-width="53" stroke-linejoin="round" d="M 8238,3570 L 8275,3535"/>
        <path fill="none" stroke="rgb(255,122,255)" stroke-width="53" stroke-linejoin="round" d="M 8312,3500 L 8349,3465"/>
        <path fill="none" stroke="rgb(255,122,255)" stroke-width="53" stroke-linejoin="round" d="M 8386,3430 L 8423,3394"/>
        <path fill="none" stroke="rgb(255,122,255)" stroke-width="53" stroke-linejoin="round" d="M 8460,3359 L 8497,3324"/>
        <path fill="none" stroke="rgb(255,122,255)" stroke-width="53" stroke-linejoin="round" d="M 8534,3289 L 8571,3254"/>
        <path fill="none" stroke="rgb(255,122,255)" stroke-width="53" stroke-linejoin="round" d="M 8608,3219 L 8645,3184"/>
        <path fill="none" stroke="rgb(255,122,255)" stroke-width="53" stroke-linejoin="round" d="M 8682,3149 L 8719,3113"/>
        <path fill="none" stroke="rgb(255,122,255)" stroke-width="53" stroke-linejoin="round" d="M 8755,3078 L 8792,3043"/>
        <path fill="none" stroke="rgb(255,122,255)" stroke-width="53" stroke-linejoin="round" d="M 8829,3008 L 8866,2973"/>
        <path fill="none" stroke="rgb(255,122,255)" stroke-width="53" stroke-linejoin="round" d="M 8903,2938 L 8940,2903"/>
        <path fill="none" stroke="rgb(255,122,255)" stroke-width="53" stroke-linejoin="round" d="M 8977,2868 L 9014,2832"/>
        <path fill="none" stroke="rgb(255,122,255)" stroke-width="53" stroke-linejoin="round" d="M 9051,2797 L 9088,2762"/>
        <path fill="none" stroke="rgb(255,122,255)" stroke-width="53" stroke-linejoin="round" d="M 9125,2727 L 9162,2692"/>
        <path fill="none" stroke="rgb(255,122,255)" stroke-width="53" stroke-linejoin="round" d="M 9199,2657 L 9236,2622"/>
        <path fill="none" stroke="rgb(255,122,255)" stroke-width="53" stroke-linejoin="round" d="M 9273,2587 L 9310,2551"/>
        <path fill="none" stroke="rgb(255,122,255)" stroke-width="53" stroke-linejoin="round" d="M 9347,2516 L 9384,2481"/>
        <path fill="none" stroke="rgb(255,122,255)" stroke-width="53" stroke-linejoin="round" d="M 9421,2446 L 9458,2411"/>
        <path fill="none" stroke="rgb(255,122,255)" stroke-width="53" stroke-linejoin="round" d="M 9495,2376 L 9532,2341"/>
        <path fill="none" stroke="rgb(255,122,255)" stroke-width="53" stroke-linejoin="round" d="M 9569,2306 L 9606,2270"/>
        <path fill="none" stroke="rgb(255,122,255)" stroke-width="53" stroke-linejoin="round" d="M 9643,2235 L 9680,2200"/>
        <path fill="none" stroke="rgb(255,122,255)" stroke-width="53" stroke-linejoin="round" d="M 9717,2165 L 9754,2130"/>
        <path fill="none" stroke="rgb(255,122,255)" stroke-width="53" stroke-linejoin="round" d="M 9791,2095 L 9828,2060"/>
        <path fill="none" stroke="rgb(255,122,255)" stroke-width="53" stroke-linejoin="round" d="M 9865,2024 L 9902,1989"/>
        <path fill="none" stroke="rgb(255,122,255)" stroke-width="53" stroke-linejoin="round" d="M 9939,1954 L 9976,1919"/>
        <path fill="none" stroke="rgb(255,122,255)" stroke-width="53" stroke-linejoin="round" d="M 10013,1884 L 10050,1849"/>
        <path fill="none" stroke="rgb(255,122,255)" stroke-width="53" stroke-linejoin="round" d="M 10087,1814 L 10100,1801"/>
       </g>
      </g>
      <g class="com.sun.star.drawing.OpenBezierShape">
       <g id="id12">
        <rect class="BoundingBox" stroke="none" fill="none" x="6559" y="4059" width="705" height="483"/>
        <path fill="none" stroke="rgb(255,122,255)" stroke-width="81" stroke-linejoin="round" d="M 6600,4100 C 7400,4233 7200,4500 7200,4500"/>
       </g>
      </g>
      <g class="com.sun.star.drawing.PolyPolygonShape">
       <g id="id13">
        <rect class="BoundingBox" stroke="none" fill="none" x="5861" y="2473" width="1667" height="1537"/>
        <path fill="rgb(25,25,25)" stroke="none" d="M 7045,3982 L 5888,3391 6343,2500 6525,2594 6207,3217 6999,3622 7318,2999 7500,3092 7045,3982 Z"/>
        <path fill="none" stroke="rgb(255,255,255)" stroke-width="53" stroke-linejoin="round" d="M 7045,3982 L 5888,3391 6343,2500 6525,2594 6207,3217 6999,3622 7318,2999 7500,3092 7045,3982 Z"/>
       </g>
      </g>
      <g class="com.sun.star.drawing.LineShape">
       <g id="id14">
        <rect class="BoundingBox" stroke="none" fill="none" x="4000" y="2000" width="2642" height="1442"/>
        <path fill="none" stroke="rgb(114,159,207)" stroke-width="81" stroke-linejoin="round" d="M 6600,3400 L 4531,2286"/>
        <path fill="rgb(114,159,207)" stroke="none" d="M 4000,2000 L 4456,2485 4656,2114 4000,2000 Z"/>
       </g>
      </g>
      <g class="com.sun.star.drawing.LineShape">
       <g id="id15">
        <rect class="BoundingBox" stroke="none" fill="none" x="21973" y="8173" width="355" height="355"/>
        <path fill="none" stroke="rgb(212,234,107)" stroke-width="53" stroke-linejoin="round" d="M 22000,8200 L 22300,8500"/>
       </g>
      </g>
      <g class="Group">
       <g class="com.sun.star.drawing.CustomShape">
        <g id="id16">
         <rect class="BoundingBox" stroke="none" fill="none" x="6357" y="3152" width="501" height="489"/>
         <path fill="none" stroke="rgb(212,234,107)" stroke-width="81" stroke-linejoin="round" d="M 6607,3193 C 6645,3193 6678,3202 6711,3220 6745,3239 6769,3262 6788,3295 6807,3327 6816,3359 6816,3396 6816,3433 6807,3465 6788,3498 6769,3530 6745,3553 6711,3572 6678,3590 6645,3599 6607,3599 6569,3599 6536,3590 6503,3572 6469,3553 6445,3530 6426,3498 6407,3465 6398,3433 6398,3396 6398,3359 6407,3327 6426,3295 6445,3262 6469,3239 6503,3220 6536,3202 6569,3193 6607,3193 Z"/>
        </g>
       </g>
       <g class="com.sun.star.drawing.LineShape">
        <g id="id17">
         <rect class="BoundingBox" stroke="none" fill="none" x="6430" y="3239" width="355" height="355"/>
         <path fill="none" stroke="rgb(212,234,107)" stroke-width="53" stroke-linejoin="round" d="M 6457,3266 L 6757,3566"/>
        </g>
       </g>
       <g class="com.sun.star.drawing.LineShape">
        <g id="id18">
         <rect class="BoundingBox" stroke="none" fill="none" x="6430" y="3239" width="355" height="355"/>
         <path fill="none" stroke="rgb(212,234,107)" stroke-width="53" stroke-linejoin="round" d="M 6457,3266 L 6757,3566"/>
        </g>
       </g>
       <g class="com.sun.star.drawing.LineShape">
        <g id="id19">
         <rect class="BoundingBox" stroke="none" fill="none" x="6430" y="3239" width="355" height="355"/>
         <path fill="none" stroke="rgb(212,234,107)" stroke-width="53" stroke-linejoin="round" d="M 6757,3266 L 6457,3566"/>
        </g>
       </g>
      </g>
      <g class="Group">
       <g class="com.sun.star.drawing.CustomShape">
        <g id="id20">
         <rect class="BoundingBox" stroke="none" fill="none" x="1840" y="9152" width="501" height="489"/>
         <path fill="none" stroke="rgb(0,255,0)" stroke-width="81" stroke-linejoin="round" d="M 2090,9193 C 2128,9193 2161,9202 2195,9220 2228,9239 2252,9262 2271,9295 2290,9327 2299,9359 2299,9396 2299,9433 2290,9465 2271,9498 2252,9530 2228,9553 2195,9572 2161,9590 2128,9599 2090,9599 2052,9599 2019,9590 1986,9572 1952,9553 1928,9530 1909,9498 1890,9465 1881,9433 1881,9396 1881,9359 1890,9327 1909,9295 1928,9262 1952,9239 1985,9220 2019,9202 2052,9193 2090,9193 Z"/>
        </g>
       </g>
       <g class="com.sun.star.drawing.LineShape">
        <g id="id21">
         <rect class="BoundingBox" stroke="none" fill="none" x="1913" y="9239" width="355" height="355"/>
         <path fill="none" stroke="rgb(0,255,0)" stroke-width="53" stroke-linejoin="round" d="M 1940,9266 L 2240,9566"/>
        </g>
       </g>
       <g class="com.sun.star.drawing.LineShape">
        <g id="id22">
         <rect class="BoundingBox" stroke="none" fill="none" x="1913" y="9239" width="355" height="355"/>
         <path fill="none" stroke="rgb(0,255,0)" stroke-width="53" stroke-linejoin="round" d="M 1940,9266 L 2240,9566"/>
        </g>
       </g>
       <g class="com.sun.star.drawing.LineShape">
        <g id="id23">
         <rect class="BoundingBox" stroke="none" fill="none" x="1913" y="9239" width="355" height="355"/>
         <path fill="none" stroke="rgb(0,255,0)" stroke-width="53" stroke-linejoin="round" d="M 2240,9266 L 1940,9566"/>
        </g>
       </g>
      </g>
     </g>
    </g>
   </g>
  </g>
 </g>
</svg>