<svg version="1.1"
     width="100px" height="27px"
     viewBox="0 0 100 27"
     xmlns="http://www.w3.org/2000/svg"
     xmlns:xlink="http://www.w3.org/1999/xlink">
    <title>Logo of Stäubli International AG</title>
    <g fill-rule="evenodd" fill="#969A9C" stroke="none">
        <g transform="translate(36.585366, 1.691463)" >
            <path d="M0.308682927,3.73902439 C-0.278634146,2.60926829 0.344780488,1.1204878 1.70039024,0.416585366 C3.05697561,-0.287317073 4.63307317,0.056097561 5.21941463,1.18731707 C5.8057561,2.31756098 5.18331707,3.80487805 3.82770732,4.5097561 C2.47209756,5.21463415 0.89502439,4.8697561 0.308682927,3.73902439"></path>
            <path d="M8.51346341,3.73902439 C7.92614634,2.60926829 8.55053659,1.1204878 9.90517073,0.416585366 C11.2617561,-0.287317073 12.8378537,0.056097561 13.4237073,1.18731707 C14.0115122,2.31756098 13.3880976,3.80487805 12.0324878,4.5097561 C10.676878,5.21463415 9.10078049,4.8697561 8.51346341,3.73902439"></path>
        </g>
        <polygon points="90.4179512 22.1586341 94.9774634 22.1586341 99.9286829 8.3137561 99.9286829 8.31278049 95.3428293 8.30302439"></polygon>
        <polygon points="88.658878 8.29292683 84.1110732 8.29292683 79.1847317 22.1841463 88.8925366 22.1841463 89.8876585 19.47 84.7447317 19.4617073"></polygon>
        <path d="M76.4825854,15.1714634 C77.3855122,14.905122 78.0113659,14.7002439 78.8455122,13.9070732 C79.6791707,13.1139024 80.083561,11.5460976 79.8713659,10.3739024 C79.6679512,9.24121951 78.5064878,8.30317073 76.5523415,8.3002439 L68.3430732,8.30658537 L63.4299024,22.1763415 L72.8738049,22.1763415 C74.0596585,22.1763415 74.9562439,21.9880488 75.9020976,21.6295122 C76.8474634,21.27 77.823561,20.4290244 78.2762439,18.8992683 C78.7547805,17.2812195 78.1581951,15.7202439 76.4825854,15.1714634 M73.1703902,19.1046341 C72.9342927,19.2412195 72.4289268,19.39 71.481122,19.3885366 L68.6450244,19.3856098 L69.8201463,16.2168293 L72.5142927,16.2065854 C73.9196585,16.2002439 74.1362439,17.1621951 73.9981951,17.8685366 C73.8577073,18.5753659 73.4074634,18.9670732 73.1703902,19.1046341 M74.890878,13.2280488 C74.5425854,13.5046341 74.1991707,13.7621951 73.0986829,13.7836585 L70.6577073,13.7982927 L71.6338049,10.7734146 L74.1025854,10.7768293 C74.7864878,10.7768293 75.2347805,10.8782927 75.4503902,11.4221951 C75.666,11.9680488 75.2381951,12.952439 74.890878,13.2280488"></path>
        <path d="M60.8524878,8.26678049 L57.656878,17.295561 C57.1807805,18.4297073 56.7080976,18.7419024 56.2539512,19.0023902 C55.8017561,19.2619024 55.156878,19.3843415 54.6773659,19.3638537 C54.192,19.3423902 53.6373659,19.3740976 53.0983415,18.7506829 C52.5939512,18.1692195 52.8778537,16.9658049 53.294439,15.9740976 L56.0339512,8.26678049 L51.6939512,8.26678049 L48.7490732,16.5306829 C48.5076098,17.313122 48.1246829,18.6126341 48.6480976,19.9560488 C49.1715122,21.3023902 50.3573659,21.9443415 51.4290732,22.2536098 C52.5037073,22.5638537 53.4349268,22.5672683 55.1007805,22.5033659 C56.7676098,22.4375122 58.5163902,21.940439 59.4407805,21.3575122 C60.3637073,20.7770244 60.912,20.2097073 61.6646829,18.7170244 L65.4056585,8.26678049 L60.8524878,8.26678049 Z"></path>
        <path d="M39.6402439,8.28395122 L30.1056098,22.1766341 L34.1982927,22.1766341 L36.3392683,19.0966341 L42.1807317,19.0966341 L42.3041463,22.1766341 L46.7441463,22.1766341 L46.2095122,8.28395122 L39.6402439,8.28395122 Z M38.4665854,16.0029756 L41.8617073,11.0512683 L42.0563415,16.0029756 L38.4665854,16.0029756 Z"></path>
        <polygon points="35.2295122 11.3732683 36.4978049 8.284 23.214878 8.284 22.0904878 11.2708293 26.57 11.2771707 22.7353659 22.199122 27.3280488 22.199122 31.1904878 11.3986341"></polygon>
        <path d="M24.6705854,6.48770732 C23.1208293,5.51941463 20.9452195,4.80087805 18.8447317,4.53990244 C16.7857073,4.28234146 13.814,4.9262439 13.4218049,7.09112195 C12.6930244,11.1316098 22.8442439,12.1555122 21.5793659,19.1540488 C20.4666829,25.3238049 14.2779024,27.1872195 7.98229268,26.3989268 C5.22180488,26.053561 2.23156098,24.8955122 -0.000146341464,23.6028293 L2.16765854,19.6706341 C3.97839024,20.8501463 6.42229268,21.973561 8.8944878,22.2813659 C11.6530244,22.6267317 14.4227805,21.8038049 15.118878,19.1428293 C16.1286341,15.2813659 5.31595122,14.016 6.8837561,7.09746341 C8.07692683,1.83990244 13.9149756,-0.0659512195 19.4276585,0.623317073 C21.9413171,0.93795122 24.4066829,1.61258537 26.598878,2.736 L24.6705854,6.48770732 Z"></path>
    </g>
</svg>
