<?xml version="1.0" encoding="UTF-8"?>
<!DOCTYPE svg PUBLIC "-//W3C//DTD SVG 1.1//EN" "http://www.w3.org/Graphics/SVG/1.1/DTD/svg11.dtd">
<!-- Creator: CorelDRAW X8 -->
<svg xmlns="http://www.w3.org/2000/svg" xml:space="preserve" width="100%" height="100%" version="1.1" style="shape-rendering:geometricPrecision; text-rendering:geometricPrecision; image-rendering:optimizeQuality; fill-rule:evenodd; clip-rule:evenodd"
viewBox="0 0 7296 7296"
 xmlns:xlink="http://www.w3.org/1999/xlink">
 <defs>
  <style type="text/css">
   <![CDATA[
    .str0 {stroke:black;stroke-width:40;stroke-linecap:round;stroke-linejoin:round}
    .fil0 {fill:black}
    .fil1 {fill:black;fill-rule:nonzero}
   ]]>
  </style>
 </defs>
 <g id="Camada_x0020_1">
  <metadata id="CorelCorpID_0Corel-Layer"/>
  <g id="_1494310649488">
   <path class="fil0" d="M3648 1373c-1257,0 -2275,1018 -2275,2275 0,1257 1018,2276 2275,2276 1257,0 2276,-1019 2276,-2276 0,-1257 -1019,-2275 -2276,-2275zm0 141c-1179,0 -2134,955 -2134,2134 0,1179 955,2134 2134,2134 1179,0 2134,-955 2134,-2134 0,-1179 -955,-2134 -2134,-2134z"/>
   <path class="fil1" d="M2048 2589l57 0c11,0 20,9 20,20l0 1964 786 0c6,0 12,3 16,7l25 25 27 26c8,8 8,21 1,29 -4,4 -9,6 -15,6l-917 0c-11,0 -20,-9 -20,-20l0 -2037c0,-11 9,-20 20,-20zm37 40l-17 0 0 1997 848 0 -13 -13 -798 0c-11,0 -20,-9 -20,-20l0 -1964zm1285 1944l64 0 199 -241c7,-9 19,-10 28,-3 1,1 2,2 3,3l198 241 1309 0 0 -1964c0,-11 9,-20 20,-20l57 0c11,0 20,9 20,20l0 2037c0,11 -9,20 -20,20l-1279 0c-24,32 -66,60 -120,80 -57,20 -126,32 -201,32 -66,0 -127,-9 -179,-25 -55,-17 -100,-42 -128,-71 -5,-6 -7,-13 -5,-19l15 -64c-2,-6 -1,-14 4,-19 4,-5 10,-7 15,-7zm74 40l-55 0 -12 48c24,22 60,40 103,54 49,14 106,23 168,23 71,0 135,-11 187,-30 51,-18 88,-43 106,-72 3,-6 10,-10 17,-10l1270 0 0 -1997 -17 0 0 1964c0,11 -9,20 -20,20l-1338 0c-6,0 -12,-3 -16,-7l-189 -230 -188 228c-4,5 -10,9 -16,9z"/>
   <path class="fil1" d="M2105 2571l71 0c11,0 20,9 20,20l0 1920 655 0c6,0 11,3 15,7l29 30 30 31c8,8 8,20 1,28 -4,4 -9,6 -15,6l-806 0c-11,0 -20,-9 -20,-20l0 -2002c0,-11 9,-20 20,-20zm51 40l-31 0 0 1962 739 0 -22 -22 -666 0c-11,0 -20,-9 -20,-20l0 -1920zm867 1900l208 0c11,0 20,9 20,20 0,8 -6,16 -14,19l-131 57c-7,3 -15,2 -21,-3l-75 -57c-8,-7 -10,-20 -3,-28 4,-6 10,-8 16,-8zm112 40l-54 0 20 15 34 -15zm282 -40l78 0c11,0 20,9 20,20 0,5 -3,10 -6,14l-50 61c-4,4 -10,7 -15,7l-69 0c-11,0 -20,-9 -20,-20 0,-5 1,-9 4,-12l42 -62c4,-5 10,-8 16,-8zm35 40l-24 0 -15 22 21 0 18 -22zm1668 -1980l71 0c11,0 20,9 20,20l0 2002c0,11 -9,20 -20,20l-1338 0c-7,0 -13,-4 -17,-9l-50 -61c-7,-8 -6,-21 3,-28 4,-3 8,-4 13,-4l1298 0 0 -1920c0,-11 9,-20 20,-20zm51 40l-31 0 0 1920c0,11 -9,20 -20,20l-1276 0 18 22 1309 0 0 -1962z"/>
   <path class="fil1" d="M2176 2549l71 0c11,0 20,9 20,20l0 1880 525 0c7,0 13,3 16,7l28 30 29 31c7,8 7,21 -1,28 -4,4 -9,6 -13,6l0 0 -675 0c-11,0 -20,-9 -20,-20l0 -1962c0,-11 9,-20 20,-20zm51 40l-31 0 0 1922 608 0 -20 -22 -537 0c-11,0 -20,-9 -20,-20l0 -1880zm716 1860l365 0c11,0 20,9 20,20 0,4 -1,8 -4,12l-29 40c-3,4 -6,6 -10,8l-46 20c-3,1 -6,2 -8,2l-208 0c-6,0 -10,-2 -14,-5l-79 -62c-8,-6 -10,-19 -3,-28 4,-5 10,-7 16,-7zm326 40l-268 0 28 22 198 0 38 -17 4 -5zm191 -40l76 0 97 -117 15 12 15 -12 97 117 1269 0 0 -1880c0,-11 9,-20 20,-20l71 0c11,0 20,9 20,20l0 1962c0,11 -9,20 -20,20l-1318 0c-7,0 -13,-4 -17,-9l-137 -166 -138 167c-4,5 -10,8 -15,8l-78 0c-11,0 -20,-9 -20,-20 0,-5 2,-9 4,-13l42 -61c4,-5 10,-8 17,-8zm44 40l-34 0 -15 22 30 0 19 -22zm1596 -1900l-31 0 0 1880c0,11 -9,20 -20,20l-1256 0 18 22 1289 0 0 -1922z"/>
   <path class="fil1" d="M2247 2524l71 0c11,0 20,9 20,20l0 1842 399 0c6,0 12,4 16,8l26 30 28 31c7,8 7,21 -1,28 -4,4 -9,5 -14,5l-545 1c-11,0 -20,-9 -20,-20l0 -1925c0,-11 9,-20 20,-20zm51 40l-31 0 0 1885 480 0 -19 -23 -410 0c-11,0 -20,-9 -20,-20l0 -1842zm566 1822l489 0c11,0 20,9 20,20 0,5 -2,9 -4,13l-45 61c-4,6 -10,9 -16,9l-365 0c-6,0 -10,-2 -14,-6l-39 -30 -38 -31c-9,-7 -10,-19 -4,-28 4,-5 10,-7 16,-7l0 -1zm450 40l-393 0 28 23 349 0 16 -23zm188 -40l95 0c11,0 20,9 20,20 0,6 -2,11 -6,14l-50 61c-4,5 -9,7 -15,7l-86 1c-12,0 -20,-9 -20,-20 0,-5 1,-9 4,-13l41 -61c4,-5 11,-9 17,-9zm53 40l-43 0 -15 23 39 0 19 -23zm1423 -1902l71 0c11,0 20,9 20,20l0 1925c0,11 -9,20 -20,20l-1299 0c-6,0 -12,-4 -16,-9l-50 -61c-7,-8 -6,-21 3,-28 3,-3 8,-5 12,-5l1259 0 0 -1842c0,-11 9,-20 20,-20zm51 40l-31 0 0 1842c0,11 -9,20 -20,20l-1236 0 18 23 1269 0 0 -1885z"/>
   <path class="fil1" d="M2320 2502l69 -1c11,0 20,9 20,20l0 1803 275 0c6,0 12,3 16,8l25 30 27 31c7,9 6,21 -2,28 -4,4 -9,5 -13,5l-419 0c-11,0 -20,-9 -20,-20l0 -1884c0,-11 9,-20 20,-20l2 0zm49 39l-31 1 0 1844 355 0 -19 -22 -285 0c-11,0 -20,-9 -20,-20l0 -1803zm418 1783l610 0c11,0 20,9 20,20 0,5 -1,9 -4,12l-44 62c-4,5 -10,8 -16,8l-489 0c-5,0 -10,-2 -13,-5l-77 -61c-8,-7 -10,-20 -3,-28 4,-5 10,-8 16,-8zm571 40l-515 0 28 22 471 0 16 -22zm186 -40l1343 0 0 -1803c0,-11 9,-20 20,-20l71 1c11,0 20,9 20,20l0 1884c0,11 -9,20 -20,20l-1279 0c-7,0 -13,-3 -16,-8l-35 -42 -36 43c-4,5 -9,7 -15,7l-95 0c-11,0 -20,-9 -20,-20 0,-4 2,-9 4,-12l42 -61c4,-6 10,-9 16,-9zm62 40l-51 0 -15 22 48 0 18 -22zm1301 0l-1217 0 19 22 1249 0 0 -1844 -31 -1 0 1803c0,11 -9,20 -20,20z"/>
   <path class="fil1" d="M2389 2479l1069 0c51,0 103,28 143,68 40,41 67,94 67,145l0 717c0,7 -4,13 -9,16 -79,59 -156,117 -230,175 47,23 88,48 124,74 44,32 81,66 111,103 3,4 4,8 4,13l0 204c0,5 -1,9 -4,12l-251 350c-3,5 -10,8 -16,8l-610 0c-5,0 -10,-2 -14,-5 -51,-41 -93,-76 -148,-121 23,31 48,62 74,94 7,8 6,21 -3,28 -3,3 -8,4 -12,4l-295 0c-11,0 -20,-9 -20,-20l0 -1845c0,-11 9,-20 20,-20zm1069 40l-1049 0 0 1805 233 0c-22,-26 -42,-53 -61,-79 -25,-34 -48,-68 -68,-100 -4,-7 -4,-16 2,-23 7,-9 19,-10 28,-3l251 205 593 0 241 -336 0 -191c-26,-32 -59,-62 -98,-91 -42,-30 -90,-57 -146,-83 -3,-1 -6,-3 -8,-6 -7,-9 -5,-21 3,-28 80,-63 163,-127 249,-190l0 -707c0,-40 -23,-83 -56,-117 -32,-33 -74,-56 -114,-56zm210 1673l0 152c0,11 -9,20 -20,20l-104 0c-11,0 -20,-9 -20,-20 0,-4 2,-9 5,-12l103 -151c6,-9 18,-12 27,-5 6,4 9,10 9,16zm-40 132l0 -67 -46 67 46 0z"/>
   <path class="fil0 str0" d="M3727 3957c-1,-4 -2,-9 -3,-14 1,5 2,10 3,14z"/>
   <path class="fil0 str0" d="M3732 3990c0,-7 -1,-15 -3,-23 2,8 3,16 3,23z"/>
   <path class="fil1" d="M3668 3854l0 78 22 -31c-6,-16 -13,-31 -22,-46l0 -1zm-40 140l0 -204c0,-6 3,-12 8,-16 8,-7 21,-5 28,3 15,19 28,38 39,58 12,21 21,42 29,62 2,6 1,13 -3,19l-64 89c-4,6 -10,9 -17,9 -11,0 -20,-9 -20,-20z"/>
   <path class="fil1" d="M4514 2820c-112,80 -234,165 -355,250 -169,118 -337,236 -499,355 -9,6 -21,4 -28,-5 -3,-3 -4,-7 -4,-11l0 -717c0,-51 28,-104 67,-145 40,-40 93,-68 143,-68l882 0c11,0 20,9 20,20 0,5 -2,9 -4,12l-218 304c-1,2 -3,3 -4,5zm-378 217c116,-81 232,-162 352,-248l195 -270 -845 0c-39,0 -81,23 -114,56 -33,34 -56,77 -56,117l0 677c151,-110 309,-221 468,-332z"/>
   <path class="fil1" d="M4907 2479c11,0 20,9 20,20l0 1845c0,11 -9,20 -20,20l-1259 0c-11,0 -20,-9 -20,-20 0,-4 1,-8 4,-11l1186 -1739 -6 5c-36,28 -73,56 -111,84 -9,6 -22,5 -28,-4 -5,-7 -5,-17 -1,-23l117 -168c4,-6 8,-9 14,-9l104 0zm-119 88c20,-16 41,-32 61,-48l-35 0 -40 59 14 -11zm99 -3l-1201 1760 1201 0 0 -1760z"/>
   <path class="fil1" d="M4002 3862c41,41 89,75 144,99 56,24 119,38 186,38 128,0 244,-52 328,-136 80,-80 131,-188 136,-308l-138 0c-5,82 -41,156 -95,211 -59,59 -141,95 -231,95 -55,0 -106,-13 -151,-36 -38,-20 -72,-48 -100,-80l-79 117zm128 135c-64,-28 -121,-68 -168,-119 -7,-6 -8,-17 -3,-25l105 -153c1,-2 3,-4 5,-6 9,-6 21,-4 28,5 26,38 61,69 102,90 40,21 85,32 133,32 79,0 150,-32 202,-84 52,-52 84,-123 84,-202 0,-11 9,-20 20,-20l178 0c11,0 20,9 20,20 0,139 -56,265 -148,356 -91,92 -217,148 -356,148 -72,0 -140,-15 -202,-42z"/>
   <path class="fil1" d="M4238 3515l558 0 0 -138 -464 0 -94 138zm578 40l-615 0c-4,0 -8,-2 -12,-4 -9,-6 -11,-19 -5,-28l121 -176c3,-6 10,-10 17,-10l494 0c11,0 20,9 20,20l0 178c0,11 -9,20 -20,20z"/>
   <path class="fil1" d="M4364 4117l-64 0 32 108 32 -108zm-91 -40l117 0c2,0 4,0 6,1 10,3 16,14 13,25l-58 197c-2,6 -7,12 -14,14 -10,3 -21,-3 -24,-14l-59 -196c0,-2 -1,-5 -1,-7 0,-11 9,-20 20,-20z"/>
   <path class="fil1" d="M4317 4077l29 0c2,0 3,-1 4,-2 1,-1 2,-2 2,-4 0,-1 -1,-3 -2,-4 -1,-1 -2,-1 -4,-1l-29 0c-1,0 -3,0 -4,1 -1,1 -1,3 -1,4 0,2 0,3 1,4 1,1 3,2 4,2zm29 40l-29 0c-12,0 -24,-5 -32,-13 -8,-9 -13,-20 -13,-33 0,-12 5,-24 13,-32 8,-8 20,-13 32,-13l29 0c13,0 24,5 32,13 8,8 14,20 14,32 0,13 -6,24 -14,33 -8,8 -19,13 -32,13z"/>
   <path class="fil1" d="M3305 4507l64 58 345 -505c2,-26 1,-51 -2,-75 -2,-12 -4,-24 -7,-36l-400 558zm54 102l-94 -84c-7,-7 -9,-19 -3,-27l434 -605c7,-9 19,-12 28,-5 4,2 6,6 8,9 9,27 16,54 19,83 4,28 5,58 3,88 0,4 -2,7 -4,10l-361 529c-6,9 -18,11 -27,5 -1,-1 -2,-2 -3,-3z"/>
   <path class="fil1" d="M3837 4996c-41,-5 -84,-13 -129,-26 -109,-31 -233,-87 -380,-184l-114 41c148,97 284,148 410,167 74,11 145,11 213,2zm-118 -65c106,31 198,35 283,28 9,0 18,5 21,14 3,11 -3,22 -13,25 -121,39 -251,56 -392,35 -141,-21 -293,-80 -459,-195 -39,-27 -43,-31 -67,-52 -8,-6 -17,-14 -32,-27 -89,-76 -207,-192 -316,-314 -90,-101 -174,-207 -231,-300 -4,-7 -4,-16 2,-23 7,-9 19,-10 28,-3l104 86c219,178 253,206 463,368 2,2 5,4 6,8 3,6 2,12 -1,17l-25 132 85 69 148 -53c6,-3 13,-2 19,1 147,98 269,154 377,184zm-644 -335c-202,-156 -239,-186 -450,-358 45,59 96,121 149,181 96,107 198,209 281,282l20 -105z"/>
   <path class="fil1" d="M3293 4496l93 85c6,5 8,12 6,19l-42 169c-1,7 -7,12 -13,14l-160 58c-6,2 -14,1 -19,-4l-102 -83c-6,-5 -8,-12 -7,-19l28 -149c2,-7 6,-13 12,-15l181 -79c8,-4 17,-2 23,4zm58 106l-76 -69 -161 70 -24 127 85 69 139 -50 37 -147z"/>
   <path class="fil1" d="M3429 3600c164,81 264,183 305,305 28,84 28,177 0,278l1084 -1589c-206,158 -432,317 -659,475 -252,177 -505,354 -730,531zm267 318c-39,-118 -142,-217 -312,-295 -3,-1 -6,-3 -8,-6 -7,-9 -5,-21 3,-28 231,-184 494,-368 758,-552 263,-185 526,-369 757,-553 7,-6 17,-6 24,-1 9,6 12,18 5,28l-1258 1844c-6,9 -17,12 -26,7 -10,-5 -14,-17 -9,-27 82,-160 106,-299 66,-417z"/>
   <path class="fil1" d="M2485 3049l25 0c1,17 5,30 12,38 7,8 16,12 30,12 11,0 20,-4 27,-12 7,-8 10,-18 10,-31 0,-11 -3,-21 -9,-31 -7,-9 -20,-21 -41,-36 -20,-15 -33,-28 -40,-39 -6,-10 -10,-23 -10,-37 0,-17 6,-30 17,-41 11,-12 24,-17 41,-17 19,0 34,6 45,18 11,13 17,30 18,52l-25 0c-1,-16 -5,-28 -11,-36 -6,-8 -15,-12 -26,-12 -11,0 -19,3 -26,10 -6,6 -9,15 -9,26 0,6 1,11 3,16 2,6 6,10 9,14 6,7 15,14 27,23 11,8 19,14 22,16 14,12 25,24 31,35 6,11 9,24 9,38 0,21 -6,37 -17,49 -12,13 -27,19 -46,19 -21,0 -37,-7 -48,-19 -11,-13 -17,-31 -18,-55zm298 -16l0 6c0,27 -6,47 -18,62 -12,15 -28,22 -50,22 -24,0 -42,-11 -54,-33 -12,-22 -18,-54 -18,-98 0,-47 6,-82 18,-104 12,-22 30,-33 55,-33 20,0 36,7 47,21 12,15 17,34 17,60l-25 0c-1,-19 -5,-34 -12,-43 -6,-10 -15,-15 -27,-15 -16,0 -28,9 -35,26 -7,17 -11,46 -11,86 0,39 4,67 12,84 8,17 21,25 38,25 12,0 22,-5 29,-16 6,-11 10,-25 10,-44l0 -6 24 0zm34 85l0 -258 27 0 0 258 -27 0zm74 0l0 -258 116 0 0 24 -89 0 0 89 65 0 0 23 -65 0 0 98 92 0 0 24 -119 0zm192 -178c-3,-10 -7,-20 -10,-30 -3,-10 -6,-20 -9,-30l0 238 -23 0 0 -258 38 0 53 146c4,12 8,23 12,34 3,10 6,20 9,30 -1,-7 -1,-15 -1,-23 -1,-8 -1,-19 -1,-33l0 -154 23 0 0 258 -26 0 -65 -178zm170 178l0 -236 -52 0 0 -22 130 0 0 22 -52 0 0 236 -26 0zm105 0l0 -258 27 0 0 258 -27 0zm102 -100l54 0 -27 -135 -27 135zm-46 100l55 -258 37 0 56 258 -28 0 -15 -76 -65 0 -14 76 -26 0zm-514 436l0 -257 116 0 0 23 -90 0 0 89 66 0 0 24 -66 0 0 98 93 0 0 23 -119 0zm180 0l0 -235 -51 0 0 -22 129 0 0 22 -51 0 0 235 -27 0zm-437 437l0 -258 27 0 0 233 81 0 0 25 -108 0zm163 -100l54 0 -27 -135 -27 135zm-47 100l56 -258 37 0 56 258 -28 0 -15 -76 -65 0 -15 76 -26 0zm202 -24l27 0c19,0 32,-3 41,-11 8,-8 12,-21 12,-38 0,-17 -4,-30 -13,-38 -9,-8 -23,-12 -42,-12l-25 0 0 99zm0 -122l25 0c17,0 29,-4 38,-12 8,-8 12,-19 12,-35 0,-15 -4,-26 -12,-32 -8,-7 -22,-10 -41,-10l-22 0 0 89zm-26 146l0 -258 47 0c19,0 33,2 41,4 9,3 17,8 23,15 5,5 9,11 12,19 2,8 4,16 4,25 0,15 -3,27 -10,37 -6,10 -15,17 -27,22 14,5 25,13 32,23 7,11 10,24 10,41 0,24 -6,42 -20,54 -13,12 -34,18 -61,18l-51 0zm232 5c-23,0 -41,-11 -53,-34 -12,-23 -18,-56 -18,-100 0,-44 6,-78 18,-100 12,-23 30,-34 53,-34 23,0 41,11 53,34 12,23 18,56 18,100 0,44 -6,77 -18,100 -12,23 -30,34 -53,34zm0 -244c-15,0 -26,8 -33,25 -7,17 -10,43 -10,79 0,41 3,70 10,89 7,18 18,27 33,27 15,0 26,-9 33,-26 7,-18 10,-46 10,-84 0,-38 -3,-66 -10,-84 -7,-17 -18,-26 -33,-26zm136 94l22 0c18,0 31,-4 40,-11 9,-8 13,-19 13,-34 0,-15 -4,-26 -13,-34 -9,-7 -22,-11 -40,-11l-22 0 0 90zm-27 145l0 -258 47 0c28,0 49,6 63,17 14,11 21,28 21,51 0,16 -4,29 -11,39 -7,11 -17,18 -30,23l42 128 -29 0 -38 -123c-8,1 -13,1 -17,1 -4,0 -8,0 -11,0l-10 0 0 122 -27 0z"/>
   <path class="fil1" d="M1075 4265l-292 51 -8 -46 288 -50c54,-10 88,-21 103,-33 14,-13 19,-32 14,-57 -4,-25 -15,-41 -33,-48 -18,-7 -54,-5 -107,4l-288 50 -8 -46 292 -51c39,-7 68,-10 86,-9 18,0 33,4 46,10 14,8 25,19 35,33 9,14 15,31 18,50 4,19 3,37 0,54 -4,16 -11,30 -22,42 -9,10 -22,19 -38,26 -16,6 -45,13 -86,20zm-214 -386c-17,7 -33,15 -50,22 -17,7 -35,14 -52,20l419 -32 4 41 -456 35 -5 -68 251 -114c20,-8 39,-17 58,-24 18,-8 36,-15 53,-21 -14,2 -27,4 -42,6 -14,2 -33,3 -57,5l-272 21 -4 -41 456 -35 3 46 -306 139zm307 -269l-456 -9 1 -47 456 10 -1 46zm9 -196l-466 43 6 -46 317 -27c10,-1 30,-2 60,-2 6,0 10,0 12,0 -14,-5 -27,-9 -38,-12 -11,-4 -22,-8 -32,-11l-298 -108 6 -44 439 163 -6 44zm23 -192l-445 -103 46 -200 41 10 -35 154 153 36 26 -113 41 9 -26 113 168 39 37 -160 41 10 -47 205zm-169 -381l12 -38c10,-29 11,-54 3,-73 -7,-19 -24,-33 -49,-41 -25,-8 -47,-7 -64,4 -17,10 -31,31 -41,61l-12 37 151 50zm229 125l-433 -143 26 -79c15,-47 36,-79 62,-96 27,-17 59,-19 97,-6 27,8 47,22 61,39 14,18 21,39 21,63l239 0 -16 48 -228 -2c-3,12 -6,21 -8,28 -2,7 -4,13 -6,19l-5 17 205 67 -15 45zm-19 -312l18 -40c28,11 51,14 69,9 18,-5 32,-18 41,-39 8,-18 9,-36 1,-53 -7,-16 -21,-30 -42,-39 -18,-8 -37,-11 -57,-7 -20,4 -49,16 -88,38 -39,22 -70,34 -92,37 -22,3 -44,-1 -67,-11 -27,-12 -45,-31 -55,-57 -10,-25 -9,-51 3,-78 14,-31 35,-51 63,-60 28,-9 60,-6 96,9l-18 40c-26,-10 -48,-13 -66,-9 -17,5 -30,16 -38,34 -8,18 -9,34 -3,48 6,15 17,27 35,35 9,4 19,6 29,6 10,0 20,-1 29,-4 14,-5 33,-14 55,-27 23,-12 37,-20 43,-23 30,-15 56,-23 79,-25 22,-2 45,2 68,13 33,15 55,36 67,64 11,28 10,57 -4,87 -15,33 -37,54 -65,64 -29,9 -63,5 -101,-12zm240 -214l-396 -225 23 -41 396 226 -23 40zm-247 -395l305 216c4,-6 8,-10 10,-13 2,-2 4,-5 6,-7 24,-35 31,-68 18,-98 -12,-30 -48,-66 -106,-107 -57,-40 -102,-61 -134,-63 -32,-1 -61,15 -86,50 -1,3 -3,5 -5,8 -2,4 -5,8 -8,14zm312 279l-372 -263 48 -69c31,-44 68,-65 111,-64 43,2 97,25 163,71 65,46 106,90 122,130 15,41 8,82 -23,126l-49 69zm71 -391l63 -72 -212 -121 149 193zm79 179l-278 -375 42 -48 410 225 -33 37 -119 -69 -75 87 84 108 -31 35zm-28 -581l244 283c6,-5 10,-8 13,-10 3,-2 5,-4 7,-6 33,-28 47,-58 42,-90 -5,-32 -31,-75 -77,-129 -46,-53 -84,-85 -115,-94 -31,-9 -63,0 -95,28 -3,2 -5,4 -8,7 -2,2 -6,6 -11,11zm236 346l-298 -345 64 -56c40,-34 81,-46 123,-34 41,11 88,47 140,107 53,61 82,113 87,156 6,43 -12,82 -52,117l-64 55zm231 -197l-264 -373 167 -118 25 34 -130 92 91 128 95 -67 24 34 -95 67 101 141 133 -95 25 35 -172 122zm334 -215l-210 -405 170 -88 19 38 -128 66 72 140 99 -51 19 37 -99 51 99 191 -41 21zm221 -107l-165 -425 191 -74 15 39 -147 57 57 147 108 -42 15 39 -108 42 63 161 153 -60 15 40 -197 76zm203 -509l83 363c7,-1 13,-2 16,-2 3,-1 6,-1 9,-2 42,-9 69,-30 79,-60 11,-31 9,-81 -7,-150 -16,-69 -35,-114 -58,-137 -23,-23 -56,-29 -97,-20 -3,1 -6,2 -10,3 -3,1 -8,2 -15,5zm47 416l-102 -445 82 -19c52,-12 93,-3 125,27 31,29 56,83 74,161 17,78 19,138 3,178 -15,41 -48,67 -100,79l-82 19zm296 -65l-60 -452 204 -27 5 42 -157 20 21 156 115 -15 5 41 -115 16 23 171 163 -21 5 42 -209 27zm303 -288l40 0c31,-1 54,-8 70,-22 15,-13 23,-33 22,-60 0,-27 -9,-46 -24,-59 -16,-13 -40,-19 -71,-18l-40 0 3 159zm-41 258l-10 -456 83 -2c50,-1 87,8 112,28 24,19 37,49 38,89 1,28 -5,51 -17,70 -12,19 -30,33 -53,41l80 225 -51 1 -73 -215c-13,0 -23,1 -29,1 -8,1 -14,1 -20,1l-18 0 4 216 -46 1zm358 -172l95 7 -30 -242 -65 235zm-96 171l133 -448 65 5 65 463 -50 -4 -16 -136 -114 -9 -37 132 -46 -3zm311 35l78 -450 47 8 -71 407 141 24 -7 43 -188 -32zm563 -283l-138 347c6,3 11,6 14,7 3,1 6,3 9,4 40,16 73,14 99,-5 27,-19 53,-61 79,-128 26,-65 36,-113 31,-145 -6,-32 -29,-55 -69,-71 -3,-1 -6,-3 -9,-4 -4,-1 -9,-2 -16,-5zm-198 369l169 -424 79 32c49,20 78,51 87,93 9,42 -1,100 -31,174 -30,75 -63,125 -98,149 -36,25 -78,27 -128,8l-78 -32zm280 117l211 -405 182 95 -20 38 -140 -74 -73 140 103 54 -19 36 -103 -53 -80 153 145 76 -19 38 -187 -98zm345 196l281 -359 58 45 -104 220c-10,22 -20,43 -31,64 -11,20 -23,41 -35,61 16,-15 32,-30 50,-46 18,-15 36,-31 56,-46l191 -153 57 45 -282 359 -32 -26 261 -333 -339 272 -23 -17 186 -394 -262 333 -32 -25zm299 250l315 -331 33 33 -314 331 -34 -33zm383 -57c9,-16 18,-32 27,-48 10,-15 20,-31 30,-47l-319 275 -26 -31 345 -298 44 51 -134 241c-11,19 -21,37 -31,54 -11,17 -21,33 -31,48 10,-10 20,-19 30,-29 11,-10 25,-23 43,-39l207 -178 27 31 -346 298 -30 -35 164 -293zm94 340l51 81 176 -169 -227 88zm-194 26l438 -162 35 55 -332 329 -26 -42 99 -94 -62 -97 -128 50 -24 -39zm265 191l20 39c-26,15 -42,31 -50,48 -7,18 -5,36 5,57 9,18 23,29 41,33 18,5 37,2 57,-8 18,-10 32,-23 41,-41 9,-18 18,-49 25,-93 7,-44 16,-75 27,-94 12,-19 29,-34 51,-46 26,-13 52,-16 78,-8 27,8 46,25 60,51 15,30 18,59 8,86 -10,27 -33,51 -67,70l-20 -38c24,-15 40,-31 48,-47 7,-16 6,-34 -3,-52 -9,-16 -21,-27 -36,-31 -15,-5 -32,-3 -49,6 -9,5 -16,11 -23,19 -6,7 -11,16 -15,26 -4,14 -9,33 -13,59 -4,25 -7,41 -8,48 -7,32 -17,58 -29,77 -13,19 -30,34 -53,46 -32,16 -62,21 -91,13 -29,-9 -51,-28 -67,-58 -16,-32 -19,-62 -9,-90 11,-29 35,-53 72,-72zm135 631l24 -13c-15,-6 -27,-14 -37,-24 -9,-10 -17,-24 -22,-40 -14,-41 -7,-78 23,-111 29,-33 80,-62 153,-87 79,-27 141,-37 185,-29 44,7 74,32 88,74 11,33 8,64 -9,91 -18,27 -48,48 -90,62l-15 -43c31,-12 53,-26 66,-43 13,-17 16,-35 9,-54 -9,-27 -31,-42 -64,-44 -33,-2 -84,9 -153,32 -63,22 -106,44 -130,67 -25,23 -32,48 -22,77 7,20 19,33 38,39 18,7 40,6 66,-3l50 -17 -21 -63 39 -13 35 104 -202 69 -11 -31zm25 100l450 -78 35 202 -42 8 -27 -156 -155 26 20 115 -41 7 -20 -114 -170 29 28 162 -42 7 -36 -208zm305 287l3 40c2,31 11,54 25,68 14,15 35,21 61,19 27,-2 46,-11 58,-27 12,-17 17,-41 14,-72l-3 -40 -158 12zm-260 -27l455 -35 6 83c4,50 -3,87 -21,113 -18,26 -47,40 -87,43 -28,2 -51,-2 -71,-13 -20,-11 -34,-28 -43,-50l-221 91 -4 -50 211 -85c-1,-13 -2,-22 -3,-29 -1,-7 -1,-14 -2,-20l-1 -18 -215 16 -4 -46zm193 348l-2 95 239 -43 -237 -52zm-176 -86l454 108 -1 65 -458 90 1 -49 135 -24 2 -115 -134 -29 1 -46zm-15 311l452 60 -6 46 -452 -59 6 -47zm104 132l-7 44c-30,-4 -53,-1 -69,8 -16,10 -26,26 -30,48 -3,20 1,37 12,52 12,14 29,23 51,27 20,4 39,1 57,-7 18,-9 44,-28 76,-59 32,-31 59,-51 79,-59 21,-8 43,-10 68,-6 29,5 51,19 67,41 16,23 22,48 17,77 -6,33 -21,58 -46,73 -25,16 -56,21 -95,15l7 -42c28,3 50,0 66,-8 16,-9 26,-23 29,-43 3,-19 0,-34 -9,-47 -10,-13 -24,-21 -43,-25 -10,-1 -20,-1 -29,1 -10,3 -20,7 -28,12 -12,8 -28,21 -46,39 -19,18 -31,29 -36,33 -25,22 -48,37 -70,44 -21,8 -45,9 -70,5 -35,-6 -62,-21 -80,-45 -18,-24 -24,-53 -18,-86 6,-36 22,-61 47,-77 26,-16 60,-21 100,-15z"/>
   <path class="fil1" d="M1108 5138l384 -247 111 172 -36 23 -86 -133 -132 85 63 98 -35 22 -63 -97 -145 94 89 137 -35 23 -115 -177zm263 176l27 35c-23,20 -36,39 -40,57 -4,18 1,36 15,55 13,15 28,24 46,25 19,1 37,-5 55,-19 16,-12 27,-28 33,-47 6,-19 8,-51 7,-96 -1,-45 2,-78 10,-98 8,-21 22,-39 42,-54 23,-18 48,-26 75,-23 27,4 50,16 68,39 21,27 29,55 24,84 -6,29 -23,55 -53,80l-27 -33c21,-19 34,-37 38,-55 5,-17 0,-34 -12,-50 -11,-15 -25,-23 -41,-25 -16,-1 -32,4 -47,16 -8,6 -14,13 -19,22 -5,9 -8,18 -10,28 -2,15 -3,35 -2,61 0,26 1,42 0,49 0,33 -5,60 -14,81 -9,21 -23,39 -43,55 -29,22 -58,31 -88,29 -30,-3 -55,-18 -76,-44 -22,-29 -30,-58 -25,-88 6,-30 25,-58 57,-84zm396 399l-6 7c-33,34 -66,54 -99,58 -33,4 -63,-7 -90,-33 -31,-30 -41,-66 -30,-109 11,-42 44,-92 97,-147 57,-60 107,-97 150,-111 43,-14 80,-5 112,25 26,25 37,53 34,85 -3,32 -20,65 -51,97l-33 -31c22,-26 35,-49 38,-69 4,-21 -2,-38 -16,-52 -21,-20 -47,-24 -78,-10 -30,14 -70,46 -118,96 -48,50 -77,91 -88,122 -11,32 -5,58 18,80 15,15 34,19 56,14 22,-5 44,-20 68,-45l6 -6 30 29zm65 261c-32,-26 -44,-61 -36,-106 8,-44 36,-97 84,-159 49,-61 94,-101 135,-119 41,-18 78,-15 111,11 32,26 44,61 36,105 -8,45 -36,98 -84,159 -48,61 -93,101 -134,119 -42,19 -79,15 -112,-10zm268 -340c-21,-16 -46,-16 -74,-1 -28,16 -61,49 -100,98 -45,58 -73,102 -83,135 -11,33 -5,57 16,74 21,16 45,16 74,-1 29,-16 64,-51 106,-105 42,-53 67,-95 77,-127 10,-32 4,-56 -16,-73zm-58 480l246 -385 40 25 -222 348 121 77 -24 37 -161 -102zm372 10l87 39 55 -237 -142 198zm-148 128l278 -375 59 26 -98 457 -45 -20 32 -134 -105 -47 -80 112 -41 -19zm622 -194l-101 360c7,2 12,4 15,5 3,1 6,2 9,3 41,12 74,7 98,-15 24,-22 46,-67 65,-136 19,-67 24,-116 15,-147 -9,-31 -34,-52 -76,-64 -3,-1 -6,-2 -9,-2 -4,-1 -9,-2 -16,-4zm-158 388l123 -439 82 23c51,14 83,42 96,83 14,41 10,100 -12,177 -22,77 -49,130 -82,158 -33,28 -75,35 -126,21l-81 -23zm348 89l82 -449 202 37 -7 41 -156 -28 -29 154 115 21 -8 41 -114 -21 -31 170 161 30 -7 42 -208 -38zm450 52l13 -456 205 6 -1 42 -158 -4 -5 157 116 3 -1 42 -116 -3 -5 172 164 5 -1 42 -211 -6zm357 -322c-8,-16 -16,-33 -24,-49 -8,-17 -16,-34 -23,-51l51 417 -41 5 -55 -453 67 -8 126 245c9,20 18,39 27,57 8,18 16,35 23,52 -3,-14 -5,-27 -8,-41 -2,-15 -5,-34 -8,-58l-33 -271 41 -5 55 453 -45 6 -153 -299zm530 225l-11 -25c-7,14 -17,26 -28,34 -11,9 -25,15 -42,19 -42,10 -78,-2 -108,-34 -30,-33 -53,-87 -71,-162 -18,-81 -22,-143 -10,-187 12,-43 39,-70 83,-80 34,-8 63,-2 89,19 25,20 43,52 53,95l-44 11c-9,-33 -22,-56 -37,-70 -15,-14 -33,-19 -53,-15 -28,7 -44,27 -50,59 -5,33 1,85 17,156 15,65 33,110 53,137 20,26 45,36 74,29 21,-5 35,-16 43,-34 9,-17 10,-39 4,-66l-12 -52 -65 15 -9 -40 107 -25 49 209 -32 7zm152 -47l-145 -432 194 -66 14 40 -151 51 51 149 110 -37 13 39 -110 37 55 164 155 -52 14 40 -200 67zm224 -429c-13,-13 -26,-25 -40,-38 -13,-13 -26,-27 -39,-40l191 375 -37 19 -206 -407 61 -31 201 188c15,15 30,29 44,43 14,14 28,28 40,42 -7,-12 -14,-24 -21,-37 -7,-12 -16,-29 -27,-51l-124 -243 37 -19 206 407 -41 21 -245 -229zm405 136l-247 -383 39 -25 106 164 112 -72 -107 -164 40 -26 247 384 -39 25 -118 -182 -111 72 118 182 -40 25zm220 -375l72 -63 -193 -149 121 212zm54 188l-225 -410 49 -42 374 279 -37 32 -108 -84 -87 76 68 118 -34 31zm118 -459l27 -28c22,-23 33,-44 35,-65 1,-20 -8,-40 -27,-58 -20,-19 -39,-27 -59,-25 -21,2 -42,15 -64,38l-27 28 115 110zm153 212l-330 -316 58 -60c34,-36 67,-55 98,-59 31,-4 61,8 90,36 20,19 33,40 38,61 5,22 2,44 -9,66l216 104 -35 36 -204 -100c-9,9 -15,16 -20,21 -5,6 -9,10 -13,15l-13 13 156 149 -32 34zm232 -266l-359 -282 29 -37 359 283 -29 36zm-12 -288l52 -80 -227 -88 175 168zm106 166l-332 -329 35 -55 438 162 -26 41 -128 -50 -62 97 99 95 -24 39z"/>
   <path class="fil0" d="M1127 4570c44,0 80,35 80,79 0,45 -36,80 -80,80 -44,0 -80,-35 -80,-80 0,-44 36,-79 80,-79z"/>
   <path class="fil0" d="M6166 4570c45,0 80,35 80,79 0,45 -35,80 -80,80 -44,0 -79,-35 -79,-80 0,-44 35,-79 79,-79z"/>
   <path class="fil0" d="M3445 1l406 0 0 329c97,5 194,15 289,29l68 -320 397 84 -68 321c93,25 186,55 276,89l133 -299 371 165 -134 299c87,45 170,94 252,146l193 -266 328 239 -193 265c75,62 146,127 215,195l245 -220 271 302 -244 219c60,76 117,154 171,235l284 -164 203 351 -284 164c43,87 83,175 119,265l311 -101 125 386 -311 101c24,93 44,188 60,284l326 -34 42 404 -326 34c2,48 3,96 3,145 0,49 -1,97 -3,145l326 35 -42 403 -326 -34c-16,96 -36,191 -60,284l311 101 -125 386 -311 -101c-36,90 -76,179 -119,265l284 164 -203 351 -284 -164c-54,81 -111,159 -171,235l244 220 -271 301 -245 -220c-69,68 -140,133 -215,195l193 265 -328 239 -193 -266c-82,52 -165,101 -252,146l134 299 -371 165 -133 -299c-90,34 -183,64 -276,90l68 320 -397 84 -68 -320c-95,14 -192,24 -289,30l0 328 -406 0 0 -328c-97,-6 -194,-16 -289,-30l-68 320 -397 -84 69 -320c-94,-26 -186,-56 -277,-90l-133 299 -371 -165 134 -299c-86,-45 -170,-94 -252,-146l-192 266 -329 -239 193 -265c-74,-62 -146,-127 -215,-195l-244 220 -272 -301 244 -220c-60,-76 -117,-154 -171,-235l-284 164 -203 -351 284 -164c-43,-86 -83,-175 -118,-265l-312 101 -125 -386 311 -101c-24,-93 -43,-188 -59,-284l-327 34 -42 -403 327 -35c-3,-48 -4,-96 -4,-145 0,-49 2,-97 4,-145l-327 -34 42 -404 327 34c16,-96 35,-191 59,-284l-311 -101 125 -386 312 101c35,-90 75,-178 118,-265l-284 -164 203 -351 284 164c54,-81 111,-159 171,-235l-244 -219 272 -302 244 220c69,-68 141,-133 215,-195l-193 -265 329 -239 192 266c82,-52 166,-101 252,-146l-134 -299 371 -165 133 299c91,-34 183,-64 277,-90l-69 -320 397 -84 68 320c95,-14 192,-24 289,-29l0 -329zm203 497c-1740,0 -3150,1410 -3150,3150 0,1740 1410,3150 3150,3150 1740,0 3150,-1410 3150,-3150 0,-1740 -1410,-3150 -3150,-3150z"/>
   <polygon class="fil0" points="4311,3841 4352,3841 4352,3555 4311,3555 "/>
   <path class="fil1" d="M4762 2409c16,-22 39,-30 59,-27 7,1 15,4 21,8l1 1c6,5 11,10 15,16 9,16 9,37 -5,59l-145 212c-2,2 -3,4 -5,5l-188 135c-9,6 -22,4 -28,-5 -5,-7 -5,-17 1,-24l220 -304 54 -76zm53 13c-6,-1 -14,2 -20,11 -68,93 -136,187 -203,281l85 -61 143 -210c4,-7 5,-13 3,-16 0,-1 -1,-2 -2,-3l-1 0c-1,-1 -3,-2 -5,-2z"/>
  </g>
 </g>
</svg>
