<?xml version="1.0" encoding="UTF-8"?>
<!DOCTYPE svg PUBLIC "-//W3C//DTD SVG 1.1//EN" "http://www.w3.org/Graphics/SVG/1.1/DTD/svg11.dtd">
<svg version="1.2" width="110mm" height="110mm" viewBox="0 0 11000 11000" preserveAspectRatio="xMidYMid" fill-rule="evenodd" stroke-width="28.222" stroke-linejoin="round" xmlns="http://www.w3.org/2000/svg" xmlns:ooo="http://xml.openoffice.org/svg/export" xmlns:xlink="http://www.w3.org/1999/xlink" xmlns:presentation="http://sun.com/xmlns/staroffice/presentation" xmlns:smil="http://www.w3.org/2001/SMIL20/" xmlns:anim="urn:oasis:names:tc:opendocument:xmlns:animation:1.0" xml:space="preserve">
 <defs class="ClipPathGroup">
  <clipPath id="presentation_clip_path" clipPathUnits="userSpaceOnUse">
   <rect x="0" y="0" width="11000" height="11000"/>
  </clipPath>
  <clipPath id="presentation_clip_path_shrink" clipPathUnits="userSpaceOnUse">
   <rect x="11" y="11" width="10978" height="10978"/>
  </clipPath>
 </defs>
 <defs class="TextShapeIndex">
  <g ooo:slide="id1" ooo:id-list="id3 id4 id5 id6 id7 id8 id9 id10 id11 id12 id13 id14 id15 id16 id17 id18 id19 id20 id21"/>
 </defs>
 <defs class="EmbeddedBulletChars">
  <g id="bullet-char-template-57356" transform="scale(0.00048828125,-0.00048828125)">
   <path d="M 580,1141 L 1163,571 580,0 -4,571 580,1141 Z"/>
  </g>
  <g id="bullet-char-template-57354" transform="scale(0.00048828125,-0.00048828125)">
   <path d="M 8,1128 L 1137,1128 1137,0 8,0 8,1128 Z"/>
  </g>
  <g id="bullet-char-template-10146" transform="scale(0.00048828125,-0.00048828125)">
   <path d="M 174,0 L 602,739 174,1481 1456,739 174,0 Z M 1358,739 L 309,1346 659,739 1358,739 Z"/>
  </g>
  <g id="bullet-char-template-10132" transform="scale(0.00048828125,-0.00048828125)">
   <path d="M 2015,739 L 1276,0 717,0 1260,543 174,543 174,936 1260,936 717,1481 1274,1481 2015,739 Z"/>
  </g>
  <g id="bullet-char-template-10007" transform="scale(0.00048828125,-0.00048828125)">
   <path d="M 0,-2 C -7,14 -16,27 -25,37 L 356,567 C 262,823 215,952 215,954 215,979 228,992 255,992 264,992 276,990 289,987 310,991 331,999 354,1012 L 381,999 492,748 772,1049 836,1024 860,1049 C 881,1039 901,1025 922,1006 886,937 835,863 770,784 769,783 710,716 594,584 L 774,223 C 774,196 753,168 711,139 L 727,119 C 717,90 699,76 672,76 641,76 570,178 457,381 L 164,-76 C 142,-110 111,-127 72,-127 30,-127 9,-110 8,-76 1,-67 -2,-52 -2,-32 -2,-23 -1,-13 0,-2 Z"/>
  </g>
  <g id="bullet-char-template-10004" transform="scale(0.00048828125,-0.00048828125)">
   <path d="M 285,-33 C 182,-33 111,30 74,156 52,228 41,333 41,471 41,549 55,616 82,672 116,743 169,778 240,778 293,778 328,747 346,684 L 369,508 C 377,444 397,411 428,410 L 1163,1116 C 1174,1127 1196,1133 1229,1133 1271,1133 1292,1118 1292,1087 L 1292,965 C 1292,929 1282,901 1262,881 L 442,47 C 390,-6 338,-33 285,-33 Z"/>
  </g>
  <g id="bullet-char-template-9679" transform="scale(0.00048828125,-0.00048828125)">
   <path d="M 813,0 C 632,0 489,54 383,161 276,268 223,411 223,592 223,773 276,916 383,1023 489,1130 632,1184 813,1184 992,1184 1136,1130 1245,1023 1353,916 1407,772 1407,592 1407,412 1353,268 1245,161 1136,54 992,0 813,0 Z"/>
  </g>
  <g id="bullet-char-template-8226" transform="scale(0.00048828125,-0.00048828125)">
   <path d="M 346,457 C 273,457 209,483 155,535 101,586 74,649 74,723 74,796 101,859 155,911 209,963 273,989 346,989 419,989 480,963 531,910 582,859 608,796 608,723 608,648 583,586 532,535 482,483 420,457 346,457 Z"/>
  </g>
  <g id="bullet-char-template-8211" transform="scale(0.00048828125,-0.00048828125)">
   <path d="M -4,459 L 1135,459 1135,606 -4,606 -4,459 Z"/>
  </g>
  <g id="bullet-char-template-61548" transform="scale(0.00048828125,-0.00048828125)">
   <path d="M 173,740 C 173,903 231,1043 346,1159 462,1274 601,1332 765,1332 928,1332 1067,1274 1183,1159 1299,1043 1357,903 1357,740 1357,577 1299,437 1183,322 1067,206 928,148 765,148 601,148 462,206 346,322 231,437 173,577 173,740 Z"/>
  </g>
 </defs>
 <defs class="TextEmbeddedBitmaps"/>
 <g>
  <g id="id2" class="Master_Slide">
   <g id="bg-id2" class="Background"/>
   <g id="bo-id2" class="BackgroundObjects"/>
  </g>
 </g>
 <g class="SlideGroup">
  <g>
   <g id="container-id1">
    <g id="id1" class="Slide" clip-path="url(#presentation_clip_path)">
     <g class="Page">
      <g class="com.sun.star.drawing.LineShape">
       <g id="id3">
        <rect class="BoundingBox" stroke="none" fill="none" x="1789" y="6001" width="423" height="3642"/>
        <path fill="none" stroke="rgb(0,0,255)" stroke-width="81" stroke-linejoin="round" d="M 2000,9601 L 2000,6604"/>
        <path fill="rgb(0,0,255)" stroke="none" d="M 2000,6001 L 1790,6633 2211,6633 2000,6001 Z"/>
       </g>
      </g>
      <g class="com.sun.star.drawing.LineShape">
       <g id="id4">
        <rect class="BoundingBox" stroke="none" fill="none" x="1959" y="9391" width="3642" height="423"/>
        <path fill="none" stroke="rgb(255,0,0)" stroke-width="81" stroke-linejoin="round" d="M 2000,9602 L 4997,9602"/>
        <path fill="rgb(255,0,0)" stroke="none" d="M 5600,9602 L 4969,9392 4969,9813 5600,9602 Z"/>
       </g>
      </g>
      <g class="com.sun.star.drawing.RectangleShape">
       <g id="id5">
        <rect class="BoundingBox" stroke="none" fill="none" x="4445" y="3517" width="2283" height="3512"/>
        <path fill="none" stroke="rgb(255,255,255)" stroke-width="53" stroke-linejoin="round" d="M 5851,5414 L 5001,7001 4472,6718 6172,3544 6700,3828 5851,5414 Z"/>
       </g>
      </g>
      <g class="com.sun.star.drawing.RectangleShape">
       <g id="id6">
        <rect class="BoundingBox" stroke="none" fill="none" x="1873" y="6674" width="3091" height="2956"/>
        <path fill="none" stroke="rgb(255,255,255)" stroke-width="53" stroke-linejoin="round" d="M 3623,8370 L 2310,9602 1900,9164 4526,6701 4936,7139 3623,8370 Z"/>
       </g>
      </g>
      <g class="com.sun.star.drawing.EllipseShape">
       <g id="id7">
        <rect class="BoundingBox" stroke="none" fill="none" x="1673" y="8974" width="855" height="855"/>
        <path fill="rgb(25,25,25)" stroke="none" d="M 2100,9801 C 2026,9801 1964,9784 1900,9747 1836,9711 1790,9665 1754,9601 1717,9537 1700,9475 1700,9401 1700,9327 1717,9265 1754,9201 1790,9137 1836,9091 1900,9055 1964,9018 2026,9001 2100,9001 2174,9001 2236,9018 2300,9055 2364,9091 2410,9137 2446,9201 2483,9265 2500,9327 2500,9401 2500,9475 2483,9537 2446,9601 2410,9665 2364,9711 2300,9747 2236,9784 2174,9801 2100,9801 L 2100,9801 Z"/>
        <path fill="none" stroke="rgb(255,255,255)" stroke-width="53" stroke-linejoin="round" d="M 2100,9801 C 2026,9801 1964,9784 1900,9747 1836,9711 1790,9665 1754,9601 1717,9537 1700,9475 1700,9401 1700,9327 1717,9265 1754,9201 1790,9137 1836,9091 1900,9055 1964,9018 2026,9001 2100,9001 2174,9001 2236,9018 2300,9055 2364,9091 2410,9137 2446,9201 2483,9265 2500,9327 2500,9401 2500,9475 2483,9537 2446,9601 2410,9665 2364,9711 2300,9747 2236,9784 2174,9801 2100,9801 L 2100,9801 Z"/>
       </g>
      </g>
      <g class="com.sun.star.drawing.EllipseShape">
       <g id="id8">
        <rect class="BoundingBox" stroke="none" fill="none" x="4373" y="6374" width="855" height="855"/>
        <path fill="rgb(25,25,25)" stroke="none" d="M 4800,7201 C 4726,7201 4664,7184 4600,7147 4536,7111 4490,7065 4454,7001 4417,6937 4400,6875 4400,6801 4400,6727 4417,6665 4454,6601 4490,6537 4536,6491 4600,6455 4664,6418 4726,6401 4800,6401 4874,6401 4936,6418 5000,6455 5064,6491 5110,6537 5146,6601 5183,6665 5200,6727 5200,6801 5200,6875 5183,6937 5146,7001 5110,7065 5064,7111 5000,7147 4936,7184 4874,7201 4800,7201 L 4800,7201 Z"/>
        <path fill="none" stroke="rgb(255,255,255)" stroke-width="53" stroke-linejoin="round" d="M 4800,7201 C 4726,7201 4664,7184 4600,7147 4536,7111 4490,7065 4454,7001 4417,6937 4400,6875 4400,6801 4400,6727 4417,6665 4454,6601 4490,6537 4536,6491 4600,6455 4664,6418 4726,6401 4800,6401 4874,6401 4936,6418 5000,6455 5064,6491 5110,6537 5146,6601 5183,6665 5200,6727 5200,6801 5200,6875 5183,6937 5146,7001 5110,7065 5064,7111 5000,7147 4936,7184 4874,7201 4800,7201 Z"/>
       </g>
      </g>
      <g class="com.sun.star.drawing.OpenBezierShape">
       <g id="id9">
        <rect class="BoundingBox" stroke="none" fill="none" x="3559" y="8360" width="705" height="1284"/>
        <path fill="none" stroke="rgb(255,122,255)" stroke-width="81" stroke-linejoin="round" d="M 3600,8401 C 4400,8801 4200,9602 4200,9602"/>
       </g>
      </g>
      <g class="com.sun.star.drawing.LineShape">
       <g id="id10">
        <rect class="BoundingBox" stroke="none" fill="none" x="2073" y="1774" width="8055" height="7655"/>
        <path fill="none" stroke="rgb(255,122,255)" stroke-width="53" stroke-linejoin="round" d="M 2100,9401 L 2468,9051"/>
        <path fill="none" stroke="rgb(255,122,255)" stroke-width="53" stroke-linejoin="round" d="M 2837,8701 L 3205,8351"/>
        <path fill="none" stroke="rgb(255,122,255)" stroke-width="53" stroke-linejoin="round" d="M 3573,8001 L 3941,7652"/>
        <path fill="none" stroke="rgb(255,122,255)" stroke-width="53" stroke-linejoin="round" d="M 4310,7302 L 4678,6952"/>
        <path fill="none" stroke="rgb(255,122,255)" stroke-width="53" stroke-linejoin="round" d="M 5046,6602 L 5415,6252"/>
        <path fill="none" stroke="rgb(255,122,255)" stroke-width="53" stroke-linejoin="round" d="M 5783,5902 L 6151,5552"/>
        <path fill="none" stroke="rgb(255,122,255)" stroke-width="53" stroke-linejoin="round" d="M 6520,5202 L 6888,4852"/>
        <path fill="none" stroke="rgb(255,122,255)" stroke-width="53" stroke-linejoin="round" d="M 7256,4503 L 7624,4153"/>
        <path fill="none" stroke="rgb(255,122,255)" stroke-width="53" stroke-linejoin="round" d="M 7993,3803 L 8361,3453"/>
        <path fill="none" stroke="rgb(255,122,255)" stroke-width="53" stroke-linejoin="round" d="M 8729,3103 L 9098,2753"/>
        <path fill="none" stroke="rgb(255,122,255)" stroke-width="53" stroke-linejoin="round" d="M 9466,2403 L 9834,2053"/>
       </g>
      </g>
      <g class="com.sun.star.drawing.OpenBezierShape">
       <g id="id11">
        <rect class="BoundingBox" stroke="none" fill="none" x="6559" y="4059" width="705" height="483"/>
        <path fill="none" stroke="rgb(255,122,255)" stroke-width="81" stroke-linejoin="round" d="M 6600,4100 C 7400,4233 7200,4500 7200,4500"/>
       </g>
      </g>
      <g class="com.sun.star.drawing.PolyPolygonShape">
       <g id="id12">
        <rect class="BoundingBox" stroke="none" fill="none" x="5861" y="2473" width="1667" height="1537"/>
        <path fill="rgb(25,25,25)" stroke="none" d="M 7045,3982 L 5888,3391 6343,2500 6525,2594 6207,3217 6999,3622 7318,2999 7500,3092 7045,3982 Z"/>
        <path fill="none" stroke="rgb(255,255,255)" stroke-width="53" stroke-linejoin="round" d="M 7045,3982 L 5888,3391 6343,2500 6525,2594 6207,3217 6999,3622 7318,2999 7500,3092 7045,3982 Z"/>
       </g>
      </g>
      <g class="Group">
       <g class="com.sun.star.drawing.CustomShape">
        <g id="id13">
         <rect class="BoundingBox" stroke="none" fill="none" x="2678" y="9262" width="321" height="304"/>
         <path fill="none" stroke="rgb(25,25,25)" d="M 2838,9263 C 2809,9263 2784,9269 2759,9283 2733,9297 2715,9314 2700,9338 2686,9362 2679,9385 2679,9413 2679,9441 2686,9464 2700,9488 2715,9512 2733,9529 2759,9543 2784,9557 2809,9564 2838,9564 2867,9564 2892,9557 2918,9543 2943,9529 2961,9512 2976,9488 2990,9464 2997,9441 2997,9413 2997,9385 2990,9362 2976,9338 2961,9314 2943,9297 2918,9283 2892,9269 2867,9263 2838,9263 Z"/>
        </g>
       </g>
       <g class="com.sun.star.drawing.CustomShape">
        <g id="id14">
         <rect class="BoundingBox" stroke="none" fill="none" x="1095" y="9262" width="321" height="304"/>
         <path fill="none" stroke="rgb(25,25,25)" d="M 1255,9263 C 1226,9263 1201,9269 1176,9283 1150,9297 1132,9314 1117,9338 1103,9362 1096,9385 1096,9413 1096,9441 1103,9464 1117,9488 1132,9512 1150,9529 1176,9543 1201,9557 1226,9564 1255,9564 1284,9564 1309,9557 1335,9543 1360,9529 1378,9512 1393,9488 1407,9464 1414,9441 1414,9413 1414,9385 1407,9362 1393,9338 1378,9314 1360,9297 1335,9283 1309,9269 1284,9263 1255,9263 L 1255,9263 Z"/>
        </g>
       </g>
       <g class="com.sun.star.drawing.ConnectorShape">
        <g id="id15">
         <rect class="BoundingBox" stroke="none" fill="none" x="1255" y="8624" width="1611" height="667"/>
         <path fill="none" stroke="rgb(255,255,0)" stroke-width="53" stroke-linejoin="round" d="M 2838,9263 C 2838,8512 1973,8563 1522,8829"/>
         <path fill="rgb(255,255,0)" stroke="none" d="M 1255,9263 L 1723,8889 1405,8683 1255,9263 Z"/>
        </g>
       </g>
      </g>
      <g class="Group">
       <g class="com.sun.star.drawing.CustomShape">
        <g id="id16">
         <rect class="BoundingBox" stroke="none" fill="none" x="5394" y="6699" width="305" height="304"/>
         <path fill="none" stroke="rgb(25,25,25)" d="M 5546,6700 C 5518,6700 5495,6706 5471,6720 5446,6734 5429,6751 5415,6775 5401,6799 5395,6822 5395,6850 5395,6878 5401,6901 5415,6925 5429,6949 5446,6966 5471,6980 5495,6994 5518,7001 5546,7001 5574,7001 5597,6994 5622,6980 5646,6966 5663,6949 5677,6925 5691,6901 5697,6878 5697,6850 5697,6822 5691,6799 5677,6775 5663,6751 5646,6734 5622,6720 5597,6706 5574,6700 5546,6700 Z"/>
        </g>
       </g>
       <g class="com.sun.star.drawing.CustomShape">
        <g id="id17">
         <rect class="BoundingBox" stroke="none" fill="none" x="3895" y="6699" width="305" height="304"/>
         <path fill="none" stroke="rgb(25,25,25)" d="M 4047,6700 C 4019,6700 3996,6706 3972,6720 3947,6734 3930,6751 3916,6775 3902,6799 3896,6822 3896,6850 3896,6878 3902,6901 3916,6925 3930,6949 3947,6966 3972,6980 3996,6994 4019,7001 4047,7001 4075,7001 4098,6994 4123,6980 4147,6966 4164,6949 4178,6925 4192,6901 4198,6878 4198,6850 4198,6822 4192,6799 4178,6775 4164,6751 4147,6734 4123,6720 4098,6706 4075,6700 4047,6700 Z"/>
        </g>
       </g>
       <g class="com.sun.star.drawing.ConnectorShape">
        <g id="id18">
         <rect class="BoundingBox" stroke="none" fill="none" x="4047" y="6060" width="1527" height="668"/>
         <path fill="none" stroke="rgb(255,255,0)" stroke-width="53" stroke-linejoin="round" d="M 5546,6700 C 5546,5949 4737,6002 4308,6261"/>
         <path fill="rgb(255,255,0)" stroke="none" d="M 4047,6700 L 4509,6319 4188,6118 4047,6700 Z"/>
        </g>
       </g>
      </g>
      <g class="com.sun.star.drawing.LineShape">
       <g id="id19">
        <rect class="BoundingBox" stroke="none" fill="none" x="5000" y="700" width="1628" height="2628"/>
        <path fill="none" stroke="rgb(255,255,0)" stroke-width="53" stroke-linejoin="round" d="M 6600,3300 L 5285,1163"/>
        <path fill="rgb(255,255,0)" stroke="none" d="M 5000,700 L 5137,1283 5459,1085 5000,700 Z"/>
       </g>
      </g>
      <g class="com.sun.star.drawing.LineShape">
       <g id="id20">
        <rect class="BoundingBox" stroke="none" fill="none" x="6559" y="921" width="1242" height="2542"/>
        <path fill="none" stroke="rgb(255,166,166)" stroke-width="81" stroke-linejoin="round" d="M 6600,3421 L 7539,1465"/>
        <path fill="rgb(255,166,166)" stroke="none" d="M 7800,921 L 7337,1399 7717,1581 7800,921 Z"/>
       </g>
      </g>
      <g class="com.sun.star.drawing.LineShape">
       <g id="id21">
        <rect class="BoundingBox" stroke="none" fill="none" x="4000" y="2021" width="2642" height="1442"/>
        <path fill="none" stroke="rgb(114,159,207)" stroke-width="81" stroke-linejoin="round" d="M 6600,3421 L 4531,2307"/>
        <path fill="rgb(114,159,207)" stroke="none" d="M 4000,2021 L 4456,2506 4656,2135 4000,2021 Z"/>
       </g>
      </g>
     </g>
    </g>
   </g>
  </g>
 </g>
</svg>